<mxfile host="www.draw.io" modified="2019-12-10T03:30:59.097Z" agent="Mozilla/5.0 (Macintosh; Intel Mac OS X 10_15_1) AppleWebKit/537.36 (KHTML, like Gecko) Chrome/78.0.3904.108 Safari/537.36" etag="OWQQm9IzMJFoy8vtnX3t" version="12.3.9" type="github" pages="1">
  <diagram id="6g79zedYwsbMjwZ2MEhd" name="Page-1">
    <mxGraphModel dx="1096" dy="658" grid="0" gridSize="10" guides="1" tooltips="1" connect="1" arrows="1" fold="1" page="1" pageScale="1" pageWidth="827" pageHeight="1169" math="0" shadow="0">
      <root>
        <mxCell id="0"/>
        <mxCell id="1" parent="0"/>
        <mxCell id="-O_1hXkaCVESM9Us_r_j-10" value="" style="group" parent="1" vertex="1" connectable="0">
          <mxGeometry x="80" y="80" width="390" height="390" as="geometry"/>
        </mxCell>
        <mxCell id="-O_1hXkaCVESM9Us_r_j-1" value="" style="ellipse;whiteSpace=wrap;html=1;aspect=fixed;fillColor=#f65c78;" parent="-O_1hXkaCVESM9Us_r_j-10" vertex="1">
          <mxGeometry width="390" height="390" as="geometry"/>
        </mxCell>
        <mxCell id="-O_1hXkaCVESM9Us_r_j-2" value="" style="ellipse;whiteSpace=wrap;html=1;aspect=fixed;fillColor=#ffd271;" parent="-O_1hXkaCVESM9Us_r_j-10" vertex="1">
          <mxGeometry x="29.04255319148939" y="58.08510638297872" width="331.9148936170213" height="331.9148936170213" as="geometry"/>
        </mxCell>
        <mxCell id="-O_1hXkaCVESM9Us_r_j-3" value="" style="ellipse;whiteSpace=wrap;html=1;aspect=fixed;fillColor=#fff3af;" parent="-O_1hXkaCVESM9Us_r_j-10" vertex="1">
          <mxGeometry x="66.38297872340428" y="132.7659574468085" width="257.2340425531915" height="257.2340425531915" as="geometry"/>
        </mxCell>
        <mxCell id="-O_1hXkaCVESM9Us_r_j-4" value="" style="ellipse;whiteSpace=wrap;html=1;aspect=fixed;fillColor=#c3f584;" parent="-O_1hXkaCVESM9Us_r_j-10" vertex="1">
          <mxGeometry x="103.7234042553192" y="207.44680851063833" width="182.5531914893617" height="182.5531914893617" as="geometry"/>
        </mxCell>
        <mxCell id="-O_1hXkaCVESM9Us_r_j-6" value="In-line style attributes" style="text;html=1;strokeColor=none;fillColor=none;align=center;verticalAlign=middle;whiteSpace=wrap;rounded=0;fontSize=16;" parent="-O_1hXkaCVESM9Us_r_j-10" vertex="1">
          <mxGeometry x="175" y="298.5" width="40" height="20" as="geometry"/>
        </mxCell>
        <mxCell id="-O_1hXkaCVESM9Us_r_j-7" value="ID Attributes" style="text;html=1;strokeColor=none;fillColor=none;align=center;verticalAlign=middle;whiteSpace=wrap;rounded=0;fontSize=16;" parent="-O_1hXkaCVESM9Us_r_j-10" vertex="1">
          <mxGeometry x="175" y="170" width="40" height="20" as="geometry"/>
        </mxCell>
        <mxCell id="-O_1hXkaCVESM9Us_r_j-8" value="Classes, Pseudo-classes" style="text;html=1;strokeColor=none;fillColor=none;align=center;verticalAlign=middle;whiteSpace=wrap;rounded=0;fontSize=16;" parent="-O_1hXkaCVESM9Us_r_j-10" vertex="1">
          <mxGeometry x="125" y="100" width="140" height="20" as="geometry"/>
        </mxCell>
        <mxCell id="-O_1hXkaCVESM9Us_r_j-9" value="Elements" style="text;html=1;strokeColor=none;fillColor=none;align=center;verticalAlign=middle;whiteSpace=wrap;rounded=0;fontSize=16;" parent="-O_1hXkaCVESM9Us_r_j-10" vertex="1">
          <mxGeometry x="175" y="20" width="40" height="20" as="geometry"/>
        </mxCell>
        <mxCell id="-O_1hXkaCVESM9Us_r_j-11" value="CSS Specificity" style="text;html=1;strokeColor=none;fillColor=none;align=left;verticalAlign=middle;rounded=0;shadow=1;fontStyle=1;fontSize=18;" parent="1" vertex="1">
          <mxGeometry x="80" y="60" width="240" height="20" as="geometry"/>
        </mxCell>
        <mxCell id="-O_1hXkaCVESM9Us_r_j-12" value="The CSS styles are aplied from outside to inside rules." style="text;html=1;strokeColor=none;fillColor=none;align=left;verticalAlign=middle;whiteSpace=wrap;rounded=0;shadow=1;fontSize=16;" parent="1" vertex="1">
          <mxGeometry x="80" y="478" width="356" height="47" as="geometry"/>
        </mxCell>
        <mxCell id="qufxZVR9V2CCAmt_oVOz-1" value="" style="shape=image;verticalLabelPosition=bottom;labelBackgroundColor=#ffffff;verticalAlign=top;aspect=fixed;imageAspect=0;image=data:image/png,iVBORw0KGgoAAAANSUhEUgAAAvAAAAGeCAYAAADysDXNAAAgAElEQVR4AeydB5wV1fXHzwLLwlKXpS4dll6lIwgi2HvX2I0lamISlX9ioiZqNBo1RqOJsRJLbFjBBioIAkpRepHeOyywC9tg/5/fXc5w3+y8t6/M2327+zufz3szc+fW78x7c+65595JyszMLBJLevfubY7Wr19vhR7b3bdv37ED7pEACZAACZAACVRpAg0aNKjS7WfjSSBcAn369BF8IK+++mpYydq0aSPbtm2T/Pz8gPjVAo54QAIkQAIkQAIkQAIkQAIk4CsBW3n3I2Mq8H5QZB4kQAIkQAIkQAIkQAIk4EHAb+UdRVCB9wDNIBIgARIgARIgARIgARKIlUA8lHfUiQp8rFeG6UmABEiABEiABEiABEjARSBeyjuKoQLvgs1DEiABEiABEiABEiABEoiFQDyVd9SLCnwsV4dpSYAESIAESIAESIAESMAiEG/lHUVRgbeAc5cESIAESIAESIAESIAEoiVQFso76lYj0gpyvddIiTE+CZAACZAACZAACZBAVSCwYMECwSfeQgt8vAkzfxIgARIgARIgARIgARLwkQAVeB9hMisSIAESIAESIAESIAESiDcBKvDxJsz8SYAESIAESIAESIAESMBHAlTgfYTJrEiABEiABEiABEiABEgg3gSowMebMPMnARIgARIgARIgARIgAR8JBF2FJi8vz8dimBUJkAAJkAAJkAAJkAAJkIAfBGiB94Mi8yABEiABEiABEiABEiCBMiIQ1AKfm5tbRlVgMSRAAiRAAiRAAiRAAiRAAuESoAU+XFKMRwIkQAIkQAIkQAIkQAIJQIAKfAJcBFaBBEiABEiABEiABEiABMIlQAU+XFKMRwIkQAIkQAIkQAIkQAIJQIAKfAJcBFaBBEiABEiABEiABEiABMIlEHQSa7gZMB4JVFUCycnJUr9+falTp45g2dXt27dXVRRsNwmQAAmQAAmQQBkSKBcFPikpSapXr16imYWFhSXCGFA1COB+wH1hy5EjRwSfRJNq1arJ6aefLi1btnSqtm/fPnn77bedY+6QAAmQAAmQAAmQQLwIlIsC36lTJznxxBNLtOnNN9+UAwcOlAhnQOUncMUVV0itWrUCGrp582b55JNPAsIS4aBXr16O8n7w4EHZtWuXbNu2LRGqxjqQAAmQAAmQAAlUAQLlosAfOnRIoPhAYHlNSUkx+0VFRVUAeckmwvJ80UUXGQv0119/bRTCkrHKL6Rp06amwwVr+Pjx4+NSkT179kjDhg1N3rVr1y5hjY9LoVFm2qpVK5MS9/Hrr78eZS5MRgIkQAIkQAIkQALRESgXBX7jxo2O4pOWliYXX3xxdLWvJKmgwIMDJDU1NeFaVbduXUe5jlflJk6c6GR97rnnSrNmzZzjRNsBDwg6HRQSIAESIAESIAESKGsCXIWmrImzvApPQH31CwoKKnxb2AASIAESIAESIIGKR8A3Czyskm3atDGWU7jCYEWONWvWmNU5/MSCCYRwYWjevLk0aNBAsrKyZNOmTbJ169aAYuCWg/pgdRAoWl27dpWcnBxZsmSJYLJsz549pVGjRrJu3TpZuXJlQFo9iKRNqBNcP3bu3CnZ2dmm7LZt28rhw4dlw4YNphzNF1utH/ZVIcQ+8lGXIhyjzlu2bMGuL9KiRQtBvbB6CuqG/FE/dxlwZ2nSpIkpE6xVMH/BFrQX1wCCUYTGjRsbvmvXrrWjOfsoF9Z13COrVq1ywmPZieQ6xVIO05IACZAACZAACZBAIhDwRYEfMGCA9OvXL6A9nTt3luOPP14mTZokcJnxQ6D8nXXWWaIuDJrncccdZ5TQL7/80iiPCIciOWrUKI3ibLt162YUV3VVad++vVG8Fy5c6MTBTqRtQllQ4NEZQMfBVsLReYBCO3nyZKcM+JV71Q8dC1v8XN0E7DIyMuzszX7v3r1NBwPXSgUTNcHKLe46o0M0Y8YMEw2K+YgRI8z+e++9J7t373YnN21GPHSs/FDgI71OJSoURYDXCkpRZMMkJEACJEACJEACJBAVgZhdaIYNG+Yo77DmLl68WJYvX26s3lB0TjvtNKlXr15UlbMTQSG+9NJLjfIO6+369esFSreu/gGl+aSTTrKTOPuYMKtrdCMfKO+w2EOJhLiV5ljaBAs1yoBVG6uo6MRcdBTQqVCB1RrKvn40HO3RMGyXLVump2LadujQwVHeUTbyXbBggRm9QB3dSin4aj1gZVfRMN3anbMVK1Y4yz727dtXkzjbmjVrOr7tfrQrluvkVCrCnRo1aph135EMk1gpJEACJEACJEACJFDWBGKywEMx7969u6kzFNYvvvjCUVi/++47ueqqq4xiCMX6o48+iqltI0eONK4mUDbff//9AOvuoEGDBApju3btJD09PeAcCn333XeNsn711VebpQqhkE6YMEFgBT/vvPMchQxx/WgTlj6E8g5BZwFLJMJNBhbt6dOnm3AslzllyhSzD7cgdU2ZP3++Uf7NCR+/Bg8ebHJDJ+udd94JyBlKKdyRbMH1xAcC5X/MmDFmX+tsx9V9XBuMNHTs2FHQYUG77HXce/TooVFN58s5iGLHj+sURbGCkQkV7TzqMbckQAIkQAIkQAIkUBYEYrLA9+nTx1Gq4R6i1mZUPD8/31jisQ9FORaB8gvlHLJo0aISCvoPP/zglA3l0RbUSS3tUF4hcEuBqO828lc/9FjbhDxVeUcZsP5rOX6MRJiKR/GlirR9jTQbzAnwcnfR85FscS0gUN6h+NuiLjnoQOXm5tqnIt6P9TpFUiA6j1gp6ZprrpGBAweapDpCEUk+jEsCJEACJEACJEACfhCIyQKPSaAQKL+wbrtF3TJwHn7rmNwZjdjW4WC+2aqA68RLLQcTNVX0Ta+6eohucR7uHVD0Y22TlyIMJR4TPG2/eK1TWW3h1gQrPK4DXJFWr15tLOxQpr2U+mjrtXfvXvMyLnRWcK3Uzx3t17kLGGWIVWK9TpGUjzeuat2RDh2077//PpIsGJcESIAESIAESIAEfCMQkwUek0pVkpOTxf2BFVYlFuUVbjEqUNTd5eBYBe4gttjKqVqhVam3z2ldY22Tl1+0lqdl2PUrq/2lS5c6IwHoEGHSMdyHrr/+esEkYD/rhlESCDpT+nZVWMwh6ERh5Z9YJdbrFEn5H374oXHDmjp1qpnbAYUeFnlbqY8kP8YlARIgARIgARIggVgIBGq7EeakCjFeJQ+/9HiJbSn/4IMPzFKN0ZRlK+zB0pdVm4KVH69wMITvO5RPWMaxEgw6VRglgVsIjj///HNfiscE1aFDh5qRGZQ1d+5cx50Gk1/DuQ6lVaQsrxNGUPDB6ALcsM4880zTNqwuhLZRSIAESIAESIAESKAsCcSkwEOhgRUSyydGK7YyB4XSy80GHQQVlGeviqLhfm39aJNfdQmVDyzQJ5xwghMF3L755hvnONgO3D/URx/ru48ePdpM4m3durVRSu3rESyP0sIx4gAfccxbgN87rpeOjITjPqN1gFtTMCmv6wR2aB86PrZrV7B6MpwESIAESIAESIAE/CZwzMclipxVka5Tp47x8Y4iiwCFHS8x8hJYP1Wpcy/56BU/ljA/2hRp+bAma/t0ffrS8kBHBtZ0/bgnjJaWHuexigpWC4LANck9f0Dz0EnAOA7XFerHH380yeFCo2vDY/IwVt8pTXSysfq5e8Uvj+uk9dD66RwPDeeWBEiABEiABEiABMqCQEwKPKypOjEUbgV4e6ctUOxhJR4+fLgdHLCP9OoiA3eLYCvW6OomeJNo//79A/KA8pmZmSkXXXSRWbYx4GSEB360KcIiTXRlAF9xTPj0W2Bpx8u1dLIv8offuy7tiA6ErpbjLhvWbhWsvR7OiAsUbHS8IOoHr77xmlewra7ZDwUZS4Sq9d6OX17Xya4D90mABEiABEiABEigPAjE5EID5XvatGnmBUqwHF9yySVGaYMyCiVPXSDw0qRQAj9i+EwjD0ysVGv0t99+67zICBbdLl26GJcdKPBQdGEJhRIKa7Qqpl7KXqiy3ef8apM739KO8RIkdGDgloEJknDTgGV+x44dgnXlYxW86ApLbGJJRLjbIH+UpdzQQcLSn16i/t/oWKCjhI92OPAyKO1cudPipV5QwCG4pmhjOIK3u8IvH5OTsb4/PkiPCcKvv/66yaK8rhMKR9kQvb/NAb9IgARIgARIgARIoIwIxGSBRx2xTCAmsKpbAZRwKIaq3MBlojTFDZbZWbNmOeu1Q6nEx3ZRgDL71ltvmTe9QpmDoo5ysFwh4uL8pk2bnPXFtRNgc9Qw3Xqdi7ZNmqdu7bx1H3UMJliWEB9dHx1thwKLzomXhCrHKz46UUgDVmCG0RLsIwzXUF1evNIibOLEiaYzpcqrrgSk1nWvdFDEVfDGVnQawhHU6e233za+88oMdbVXG0I+ftx74dTHHUfnacDlKNYOoztvHpMACZAACZAACZBAaQSSMjMzi+xIvXv3NocLFy60g8Pah4IFFxhY36HkwPXC9p8OK5MwI0F5x/KSUPDgWw33j0iV2nCKKss2hVOfWOJACYYVHRNgoXju37/fXCO1pseSt1daTGI95ZRTzCm8iVddY7zixhpWltcJIxlwSYLgnkPndcuWLYJlJikkQAIkQAIkQAIk4BcBeGdgzqLbSyImFxp35aAI6gon7nN+H0Np1zeq+p23nV9ZtskuNx77UDb37NljPvHI350nXhwFgetLPJV3lFGW1wkvwWrcuLF0797dGSXBMpwUEiABEiABEiABEigLAr4q8GVRYZaR2ASwKg5GYTBhFqMkkNLccxK7Rd61U5cnnIUbUTxGf7xLZigJkAAJkAAJkEBVJ0AFvqrfAT63H5NW7eUoN2zYYOYt+FxMQmWn8xYSqlKsDAmQAAmQAAmQQKUlQAW+0l7a8mnYmjVrjMsMlFq8zGnt2rXlUxGWSgIkQAIkQAIkQAKVlAAV+Ep6YcurWVhWEh8KCZAACZAACZAACZBAfAjEvIxkfKrFXEmABEiABEiABEiABEiABLwIUIH3osIwEiABEiABEiABEiABEkhQAlTgE/TCsFokQAIkQAIkQAIkQAIk4EWACrwXFYaRAAmQAAmQAAmQAAmQQIISoAKfoBeG1SIBEiABEiABEiABEiABLwJU4L2oMIwESIAESIAESIAESIAEEpQAFfgEvTCsFgmQAAmQAAmQAAmQAAl4EaAC70WFYSRAAiRAAiRAAiRAAiSQoAT4IqcYLkz1lJQSqY8UFEjRkSMlwit7wNjHz/a1iY/dNcHX/JhZ9ASqV68uyTVrBmRw5MgRyc/LCwizD5KqVZMUj99H7qFDdjTukwAJkAAJkAAJREGACnwU0JCkRu3actLrz5dIveKV12X9xC9KhDOABCoqgTvv/pN06tw1oPqFhQVyy/VXBITZB6ecdpZcdNmVdpDZv/d3v5FtW7eUCGcACZAACZAACZBA+ASowIfPKiAmrOx5e7OcsJS0hsX7SUlOWFXc6XLmzpiaveKTJjGlZ2L/CWzfukUyWrYyGddKqSXVa5T+t7F3z27Jyck2aZJrJEvNo9Z4WOYpJEACJEACJEACsREo/UkcW/6VNvXhvDz55oZfOe0b8+bLUq1msnPMHRKoLAT++9Jzgg/ksiuvk9GnnF5q02Z/N0PwgbTrkCl//PPDpaZhBBIgARIgARIggfAI0BwWHifGIgESIAESIAESIAESIIGEIFCpLfD12raWtB7dpH5me6mWnCw5m7bIlinT5dAObzePOhktpHH/PlK/Qzs5nF8gWStWyo7Z86QwO8fXiwU3gqaD+kvDrp0lJT1NcjZulj2LlsreZSuClpNcr6406ddXioqOyNZpMyWpenVp3K+PNBs60KRB+i1TvxUpKgrII61RuhzXf5ATtnD+PNm1c4dzXFF3Bg0ZJn37DZS69erJkkULZMb0KZLRsrU0adpMNm/aKOvWrCrRtH4DBkt648ayauUKWbt6lbRo2UpGjjpZ2rZrLzt37pDPJn4oWzdvKpGuW49e0qtPPxNv//598tPypTJtypdy+PDhEnE1AHn3HzhEMjt1kaKiIlm1crl8O/Vr2bfvmNuVxh045Hhp2DBNVixbKjt3bpfBQ4ebthUWFsrCH+fJtKlfalSzhUW7U+cukpeXZ+oRcPLoQas2baVb955y+PAR+XryZyWiRNOmEpnEKaBBg4YydPhIyezcVZKTa8i6tWtk7vezZOOGdU6JzVpkSO8+x8mhQ4fk22++dsK9dmrVri0njDzJnJry5SSB/75K+46Z0r5DJz00PO3zzgnukAAJkAAJkEACEaiUCjxWh+l5+83SbEixcmvz7njJ+bLm3Q9l1Vvv2cHS8dILBOdsaTXmRDly47Uy/2//kF0/LrRPRb1fu2kTGfTQvZLSKC0gD5S/c958WfD403Ik/5iCoZGg7KNNkP2r1srxTz0itj9xxsjh0qhnd1n8z/9oErPt22+AXH7VdU5Y/QYN5MPxbznHFW0HK6L87t4HpX2HTKfqUEbPOu9Co9BC+YNy/vD9f3DO685V191kFP7FC+dLjRo1pGv3nnrKKItDh42QX954teTl5ZpwKH53/O7egLJwYsCgoXLuBZfKow/d56nwo5wRo8Y4eWOnZ+++cvZ5F8vL/3nGcS3RCFdfd7OgrKWLF0hmp66OvzjO9zmuvww+frg89vCfNbp07dZDLry0eALpls2bZNVPy51zunPTrb+RFhktzUoxtgIfbZs033hvBw0dLj+/+ZdSzfKV796zj5xx9vny9eTP5c3XXjZV6NKlu1zys2vM/pzvZjrXzKt+6BBp3GlTvgpQ4M+/6HLB/aOyeOGPsmP7Nj3klgRIgARIgAQSkkCldKEZ8rf7HeU9d+cu2TR5imz4dLLsX73WXITUjOYBF6PVyaMc5b0gO8fE3/rtLLMcJPza+90zVmo1SQ9IE9VBUpIMeexBR3nfvWCRbPh0kuRs3mqya9K/r/T+7W2lZj3woXuN8p67a7fpWKBdmFRbPSVwqb9SM6qAEW751Z2OQr0vK8sow5s3bZBatWoLlPdwpHOXbkZ5x1KI27dtlfVr14gub1it+rGfxF/+9pRTFiZyzpoxTZYvW2ws6nXq1pU//OmhAEUTZd/8y986yvvBnGxjOV7ww1yjNKLzccMttxvLv1c9oahisic6IBvWrzXlIF7nrt3NR9NM/nyioO6Qc86/WIOdLUYloLxD5sye5YRjJ5o2BWQQx4PmLTLkxltuN0zRvmVLFgnY6XKVJ518mpx25rmmBvPmfOfUpPdx/Zx9r50evfqYYEyq1c6ZVzyGkQAJkAAJkEBFIVDpLPCwRNdpVay8bPxssix78dWAa9GoRzdJbdniWFhSknS68lJznL9vv0y/9Q45nFu8vvW69yfIkMf/YpTlrtdfJfMf/cexdFHswaKfXLeOSbns+XGy8YuvnFz6/fEu4xID1xp0FnJ37nbOuXdq1q8ni5953rgD6bmaDRtK3dbF7dawyraF0tyrb7GyhqUI77v7DmfN/Vt/fVeAq1CotkNJztq7Rx687/ey33JpGTXmVEdZPPWMc5wOwccfvCsTPnjXyRIK4W/G/tF0Gi694hp587VXzDkooHCbgUAJ/+uD9zj1Q92f+OcLAiUenZD7fv9bJz97599PPyE/zP3eBKU3biJ/feIZSUpKkjGnnmFcd3ACrjsrli0xluMu3Xo4Cq/mc/Z5F+luwGhLNG1yMiqDnWtvvNWUApejRx68xzBEQJ06deWRJ581vDHS8vknH5kVbnJzD5kwuDfBCh9M2rbraE7ZLjjB4jKcBEiABEiABCoCgWPmxopQ2zDq2P7Cc0wsWNKXvfRaiRR7liyTTZOO+czWbdXSUapXv/uho7wj4YH1G2XPoiUmj8Z9e5fIK9KAjFEjTJLCgwcDlHcELn1+nJNdxohhzr7Xzvbv5wYo74iTn5Xl1NVOk5OTI4cLC51P9oH99ukKtT/shFGOxfvVl55zlGM04rWXS67JH6pxjz/yQIDyjrhTvvzC8Ws/+bSzTPI9u3cHKO8IhM+9+rL37tvfKeb8iy83yjasx48/cn9A/XKys+XHebNN3GbNrQ6kk1pMp0KVdwTv3rVTsBwjpFGjxlZMkffffdMcw9XkxNGnBpwbPPQEc4xRA3RUVKJpk6Yti626Ra1bu9pR3lEuLOdffvGpqUJKSi1p175YId+0Yb0J69DxmA/77+99UJ567hU578LLnCo3TCt2V1u8YL4Tpju4jvbvo6CgpPuaxuWWBEiABEiABBKFQKWzwNdKb2TY7pzzQ4kJnV7Q61jW+J2z55WIsnPeAknv08ssEQmf81jeslr7qBvOvpVrSpQDVx9Y/qvXSpHUFoEuPu7IGz+Z5A4Kejx71reCT2UQXYscCvJKl9/3gQP7RS2ypbUVSi2U21ACNxRIo/R0+ddLb5SICh96iCqH2G/RongEBEr1P/5V7KttJ4T1HYLzmOTqnjC7bVvJOmVnH5BG6Y2ldmqqnZWZpIvRg/oNGpplHdXPHRNcYe2HTPp8YkCaaNoUkEEcD2rUSHY6Z0sXl5xv8t3M6XLWuReaGmCCLpR8zGXARNfGjYvfHYA8OmR2Np0oTIL98L23pE3b9k6+uqyl3YyXnvun4EMhARIgARIggYpEoFJZ4KFgQwGG5Gwp9isv7WLY/vD2i5k0HfzMVVKbN9PdqLbJRxWrvD17PdMXZBe/+Ca1eVPP8xqYvWmz7lapbXqTYkUt2OoveUddn0qDsnfPMau0V1y42KiyjfPJycklPnBrgSQlHfsJ1W94zAffK409MbPu0XvBLv/AvpKjI0eOrnRjp9U004+uvtK0WXNpmFbccVWfeFiV9TziR9smLSve25atWztF7Nyx3dnXnZ3WxFKsNgSZ832x2wxeLNW4SVMZNHSYUd5xLq1RI3PNjhtQvAITLOs6mqF5cksCJEACJEACFZVApbLA29bxcCd0HsnPP3btsPLF0cmBGlg9+djLmfDyplhE64clLb0ES0NCsIRlKIGvflWUvEPFq8N4KbPgYSvdofgcPBh6WdBCy40CSxTqS4xC5Ylzqmxjmc677/xladFLnC+SwCVAS0RwBXw64QM5/azzjIX53AsukVdfeV66H11RZdHCHwNGi6Jtk6vIuB3m5RZfWxRQs2bJydg1rN9Mfn7x7xCrxWDJR1jeMfege89iNzdMam7Zqo0MHTZSunTtYeq8dUvJ5UHj1hhmTAIkQAIkQAJxJnDMfBjngsoqe/i+Q+q0Ln71e2nl5mw5tmRcarNiC6+dprYVlrs7tOUW6Wq4XB3svPL37TOHKY2LraX2Oewn1yme4HpwW0kLpDtuuMdwvcAyefpRN4pw0ydSPHUxgaIOi7Jbateu7Q7yPMYkyVACFx31hcY6+uHKrl3F7xdIDXEPhJtXOPGwOsuaVT+ZqAMGD5Xjh48UWKMh6iOv+UTbJk1/bFvMrlq14s7msfDge3h3gYrXyAPObbcs7F5zBDIyjv2eoaCrbNtaPNLWvWcv6ZDZyazO88a4F83pgUOPl4xWxemwoo2XYIKsWQse68F3zDRWe694DCMBEiABEiCBRCJQ6RR4vKwJ0nRgv5DKtF6E7I3HLHNYTtItLUYcb4IOH7X+us/rcUFOccchvVd3DSqxPbit+AVKDTtnStJRRUsjpfXoavzscZy90T8XmSHHn2DWMsd65viMOfVMLbLCbZcvXezU+YyzAtfsx3rpqrw6kWLY2bN7l0ndpVv3sC37G9cXv2go9ahSGEPxYSf96P13TFwso3nZldea/X1Ze0v41+NENG1yVwTLbkIwCgL/8nBk25Zjvv3H9R/smQSjU9ppsl88ppFPPu3YfYtlP1WwGg+kY6cuZkWaTRvXm/kRcCHqmNnFrGCD83gRlJecff7F8oc/Pex8dBUhr7gMIwESIAESIIFEIVDpFPjlLxUvGwl/+MGP/Fmw5KIjZsnIS6TLdVc6QViuEavNQNqcfrJ5C6uebH3q6GNLUlor1+h5e5u9obgj0KBLJ8FSll6CF0hBULfedxxb7z25Tqr0/s3RJfQKC2XLV994Ja/yYZi0qMs+nn72eeYlR4ACH/Abb/21r3ze+G+xFRfuGX/488OOIqiFYM32e+5/xCzvqGHvvvWaWdEEx7++6w8lFFzU87bfjJVbbr9Tk8S8RacGq7RAoMRDvpkS+OZWEygi0bRJ0+p2+VGFGcfX3XSbYa/ngm2x9roq58NGnCi6Lrs7/tyja9Zj0u6Z51zgnO7aracMGFzckcbKPPaLluYdTYPVaSCqqG9Yv86xpmP0AZNeKSRAAiRAAiRQWQhUKh94XJT9a9bJpi+nCtZcxwozI196Rsyk0aIiSUlvZJTnbTOOvQQGaZY/P07My5Fq1DAvWsLE1Wo1azrKP3zfV7/9fshrvvzl12TYU4+a/PHG1B6/vNHE3zF7nix47Gmzv3fZCtm/ao3Uz+wgzQYPkNFvvChwq6nVpLFJh0hr3vtYDtt++SFLrXonXx/3olGAYQH+5W9/Z1wm1Cceiprux0oGLheLFvwgWGMclua/P/ui5GQfKH6JU526jrUfL3ZSwcug3n3rdWMJh2vGvQ8+KvC3L8jPl9q1Ux23n00bj7mAaNpYtt/NmCajTznDZAEGX3z6sWd20bTJnRFWzsFLpsCkVes28tBjTzsvlfrj2NsF/v9egpdP4W2qqal1zBr6qCcEIwifflz82/rfqy/JoMHHG7bnXXSZnHbWuWZeAUY0VF4f94Lumi1WI7Kv+7SpxZ0XrFoDlxhIsDrhXLjzJkxG/CIBEiABEiCBBCFQ6Szw4Lr03y/Joqf+LVC8Ye2u1TjdUZKxBvv27+YE4N+7/Cf5/u77BecgiK+We1jnp99yh8krIJHrAK47c+79ixzauctMHkS5+NRw+WWjnK3TZpjUWDGndrOmJh6mb40AACAASURBVB5cCJY+97KsfucDV87Fh0WHj/kRe0YIEqiKkp7WiZZ6XNG2WEv97488aCzx8GWHwo7lIz/56H3J2lu8uk9e/rEJkXb71Bdbt/Y5r/2nn3hE3vnff41VHeXUq9/ALNsIVx2UDcUQowK2fDXpU3ns4T8L3sIKgcLaoGGao7xnHzggULhtOXLUR1wnOdvn1F3ffR3tOBM+GO8cwtKsby51Aq2daNpkJTe7f73/Hlm6eIGZQIoAsNGPO64ef/Dum4JJt/omVI1vT1hFB+juu35l1r9HOowoqPKONj35t4dK8EY8XV0GozNYbx8yY9oUs8XXKteSo84JEedNuwgDY0z+pZAACZAACZBAohNIan7CTQEz+o5vUuz7u3BhybWYE70xXvXDG0obZLYXrPBycMs2sX3eveKnNEqTBpkd5EhBgWQtXymFhw55RYs5DD7wqFet9HQ5sH6D5GzeGta69TEXHKcMxj5+tq85P3bXhFLzg/UULi6qFD7zwqsCV4ppU76U116J7MVOpRWGt6LiradYHnL71q2yds0qp9xgaWGF79ytu6SlNZKdO3bI+nVrHBegYGmiCR8+8iS55ue/MEmfevxhTyXXK99o2uSVTzzCsJZ9j559JLlmTfPW2VBW9FjK//fLb5h7CHl8P3O6vMg14WPBybQkQAIkQAI+E+jVq5ds27ZN8l3eGZXOhcbNDW8o3Tk3fKsa3G3g9hJvKSosNB0EkZXxLqrS5Q/rLaylWA9e14Tv1LmrUd7R2FAW12hhwPd65vSpESWHb/qPc4vfvhpRwggjw90EAgu2e0QgVFbRtClUfn6egyXd68VLfpaBl2mhAwjB/fT60XkPfpbBvEiABEiABEggHgQqvQIfD2jMsySBcCzmJVNFHjJwyPFywy9uN1bZH+Z+Lzu2b5fMTp2NfzVyg+I3y+WiEnkpiZ9iwKCh0qlLV7P+eYMGxS+Q+mrSZ4lf8QSq4dBhI5zawOUGHSAKCZAACZAACVQEAlTgK8JVYh0DCMACr+va2yew0sm/nn7cDqq0+7C62+ulr129Sj58761K2954NGziR+/J1K8mmayz9pb+jod41IF5kgAJkAAJkEA0BKjAR0ONacqNwKIFP8oH49+Snr37CizPKSkpsmf3buNfjmUcQ03gLLdKx6HgBT/Olc5dusmBAwdk/g9zjN9/HIqp1FniXtkT49uVKzUgNo4ESIAESCBhCVT6SawJS54VIwESIAESIAESIAESIIEQBIJNYq2Uy0iG4MBTJEACJEACJEACJEACJFChCVCBr9CXj5UnARIgARIgARIgARKoagSowFe1K872kgAJkAAJkAAJkAAJVGgCMU9ibdGihXm5zf79+yU7O1sKCwsrNBBWngRIgARIgARIgARIgAQSmUDMCvzo0aMlNTXVaePatWtl8uTJzjF3SIAESIAESIAESIAESIAE/CMQswvN8uXLZePGjZKbm2tq1b59e+nUqZN/NWROJEACJEACJEACJEACJEACDoGYLfBz5841mSUlJcm1115r3Glat24tK1eudArhDgmQAAmQAAmQAAmQAAmQgD8EYrbAazWKiookKyvLHNarV0+DuSUBEiABEiABEiABEiABEvCRgG8KPOqEV9lD8Kp7CgmQAAmQAAmQAAmQAAmQgP8EqGn7z5Q5kgAJkAAJkAAJkAAJkEDcCMRFgU9OTo5bhZkxCZAACZAACZAACZAACVRlAr4q8IcOHTIsGzRoIJjUSiEBEiABEiABEiABEiABEvCXgK8K/I4dO0ztoLx369bN35oyNxIgARIgARIgARIgARIgAYl5GUmb4ZIlS6RNmzbSsmVLGT58uAwcOFAOHjwomzdvlpkzZ9pRuU8CJEACJEACJEACJEACJBAFAV8t8EeOHJHZs2fLtm3bTFVSUlIkLS1NMjIyoqgak5AACZAACZAACZAACZAACbgJ+GqBT09Pl/PPP9+UkZeXJzNmzJBdu3YJ9ikkQAIkQAIkQAIkQAIkQAKxE/BVge/evbtTo4kTJ8ru3budY+6QAAmQAAmQAAmQAAmQAAnETsBXF5r69eubGsHiTuU99ovDHEiABEiABEiABEiABEjATcBXBV6Xjty/f7+7HB6TAAmQAAmQAAmQAAmQAAn4QMBXBd6H+jALEiABEiABEiABEiABEiCBEAR8VeCx6gyFBEiABEiABEiABEiABEggfgR8U+Br1qxploxEVbOysuJXY+ZMAiRAAiRAAiRAAiRAAlWYQMyr0Jx88snStGlTSU1NFfWBX716dRVGyqaTAAmQAAmQAAmQAAmQQPwIxKzAN2vWzCjvqGJ+fr4sWLBANmzYEL8aM2cSIAESIAESIAESIAESqMIEatTd+nVg85v0Djwu5Wj8+PEmRm5ubikxeZoESIAESIAESIAESIAESCBWAjFb4Km4x3oJmJ4ESIAESIAESIAESIAEwifg2yTW8ItkTBIgARIgARIgARIgARIggWgJUIGPlhzTkQAJkAAJkAAJkAAJkEA5EKACXw7QWSQJkAAJkAAJkAAJkAAJREuACny05JiOBEiABEiABEiABEiABMqBABX4coDOIkmABEiABEiABEiABEggWgJU4KMlx3QkQAIkQAIkQAIkQAIkUA4EqMCXA3QWSQIkQAIkQAIkQAIkQALREqACHy05piMBEiABEiABEiABEiCBciBABb4coLNIEiABEiABEiABEiABEoiWABX4aMkxHQmQAAmQAAmQAAmQAAmUA4Eawcrs3bt3sFMMJwESIAESIAESIAESIAESiDOBoqIizxJogffEwkASIAESIAESIAESIAESSEwCQS3wCxcuTMwas1YkQAIkQAIkQAIkQAIkUAUI9OrVy7OVtMB7YmEgCZAACZAACZAACZAACSQmASrwiXldWCsSIAESIAESIAESIAES8CRABd4TCwNJgARIgARIgARIgARIIDEJUIFPzOvCWpEACZAACZAACZAACZCAJ4Ggk1g9Y1fxwHr16kndunWlVq1asnnzZsnPz6/iRNh8EiABEiABEiABEiCBsiZABT4M4m3btpVRo0ZJzZo1ndiffvqpbNq0yTnmDgmQAAmQAAmQAAmQQNkTSEpKkho1AlXaI0eOyOHDh8u+MmVUYmBry6hQP4rp3r27NG/e3GQ1depUwYWKl4wePdrcGFhMf8eOHXLw4EHZv39/vIpjviRAAiRAAj4SwKhpq1atJCMjw4yiHjhwwBhg1q5d61kK4nfu3FnS09MlNTVVsrOzZdeuXbJq1SrJy8vzTAMFAmmaNm0q9evXl9zcXNm7d6+sXr1a9u3bVyJNly5dBGlCSU5OjmzcuDFUlEp37rjjjpOhQ4ea5+y4cePCal/t2rUFz2lc3+TkZCfN888/LwUFBc6xe+fGG2808b/++mtZvny5+7Rvx9G0ybfCfcrommuuMb+dH3/8UWbOnOlTrv5lc9ppp0mHDh0CMsS1xz3gt6SkpEinTp3M/wO8MvB/gv8H3EOl6aJpaWnSrl07adCggWzbtk3Wr18vhw4diqqKvirwTz/9tMBaDev0f/7zHzn99NPlF7/4hVF2r7rqqqgq6E504oknCm6kRo0aOafmzp0bN4UaF0d7dVOmTDF/4E7B3CEBEiABEkhoAlhDecSIESXqiLeN48H58ssvB5zr16+fDBkyxFO5xvNnzpw5Mnv27IA0rVu3FigQ9iitRoAyunXrVnn//fc1SKpVqyZjxoxxjoPtQIEPV4kNlkdFC4cCjo6NF8tgbbnwwguNQqTng725Us/rVsuylX495+dWywmnTWj7ZZddZu6RL774wiiGftYl2ryqV69ukuo2knzKok3oLOP3AgHneF3Tc845R/B795Lhw4fLV199ZTrtXufxH9GxY0fnVI8ePcw+dMulS5c64eHu+KrAw8IBmTVrltnijwsSzMphTob51adPHxk7dqzAD70spWHDhk5x+BOmkAAJkAAJVAwCULj1IYmhdIygwprepEkTwX87LO22dO3a1Vh/NQyWNVjJ8NxBGigv7mcQLGlnn322o/DD8o45UrDSwYIP67A7jeaPLSx2waz6UEqqmmCEG5bTcEe5YczDNYDgBZTff/992PPTcC/gHsA1i6dE0iYou2qgrFOnTsIo8LHwKYs2fffdd4IPZMCAATJ48OBYqhw0rXp+oJOIkTXcQ82aNTMdBnQaTj31VHn77bdl9+7dAXmgw67KOzoasNjriBFctHHPr1y5MiBNaQe+KfAYTsCfG/6M9C2uCIP4MdyCzoD+CeKHvWfPHjMMUVoDYz2PG08l1FCcxuGWBEiABEig/AlAQVflHQ/Zt956K0BRhpKkRiat7bBhw8wuLPNvvPFGQHw8C2BIKiws1OhmC6sbzuGBPn78eNNJsCNgVLpNmzZ2UMA+XBJU8Qg4UUUPFi9eLPiEK+gkqUSivCPNq6++qknjuo20TXGtDDOPiQCUb7jSzZs3L+C/AG5Sxx9/vPkvwIjfBx984JSDEQG410GguEPBh6BzD48S6M74LypTBT4zM1PgzwM55ZRTzBY9zYEDB5peLXwHIRq2YcMG2b59u5kQCmV8wYIFRuFHzwSNg6Ue/uw//fSTSWd/wXoCpf2VV16RadOmmUbDj4hCAiRAAiRAAm4CI0eOdILwwHRbufE8+eSTT5w4eJiqRR6KoDs+FPT58+c78XVHLXJ4vsHC7xb4uOLjp8DHHqMF6KTg4Y8OCkYK1qxZU2LSHnzy8ZyG4QtWQTy34QIARQT1Ks3HHukxuo4t0qAcKDClualAsW7ZsqVJhzpiNAE+wl6WdVjQ1eqsnMB/y5Ytehiwbdy4sRndQCA6SBDUp3379gHxoBC5fZIRHy5MtkAvgZ5SmsSrTRitUX3GNhqi46f3JOqG64zRHYidBtfdy8AIi7D6heNa+zXSgHzBEXWGboa8UQdb7PpF2ibUE+3BXEfcc4sWLTLKMtzhcA2gK65YscIuLqZ9/PbVgwQZ4b5DuV6Cjr2X4L8Brne4t9z3cs+ePZ0ROrhFqWCEBb8NCHRi/J6zsrL0dKnbmCzw99xzj6PAa0nwGUe4LXfeeac5xJ/iww8/LLfeeqvxUcIFxw9OLy4u1plnnml6Lm6/vxdeeEHwKWtR//eyLpflkQAJkAAJREcAD1F9IEM5C0dxsf2T1TAVTun2Azic+LHGgYFs0KBBJbIJ5tMPpQIKO4b7oVTZCiFGFKB8Yd6aW9GFkgafXffoAcqBpRE+/XAxcgvSYUKpugvY51F3rzkEmHeA578tUOCCTUDs37+/6YjY8aFHuOcVQNFzL/d81lln2cnMPoyCUBKDSbzbBBcMd91RF7C2BcqdKpC47zQN5mSAq1twfdWVBMZPPwT30NVXXx1wH+HaYbL2559/7hQRTZvgpqZtcjISMfcGOgpQeCG4t2AgxuiVH4L/CjVCI7/p06c7niTh5o8OJDqnUMLdHUT9LeCethX0M844IyB7eK14XceASNZBTAq87duuf3j4k8AfAXrUaAR+PNqTwR+FLdozhPM+0uFHjJvj/PPPNzcDIJa3aK8Y9fDq4ZZ3/Vg+CZAACZBAIAF1t0So2zIYGPPYER6+eAhDEYRCAmsxhrtLEzzf8NCG1Q0P4EiHwWH0gkXZS6Ag2yMBUFqgBEPQKYH1HM9OlA+LaCiDk/qJY5QAVnQoLagz0p1wwgnyzTffBFThkksuMfkiEGlglURdoYxge/HFF5sJtm7F/6KLLnIskKg/RiagfGGkAlZ81NUtiKMdCyhx9vVzx8UxlEXkCYFFVvnZVllcS7e7E+Jj9EAVLNVBTEYhvuLdJih1dt2xQhEE8+7sEQv7fsSIAa4LmMJVzEvxg+UXgnThjDCYyKV8ad2gz6ETgVEW/GZwX+Da7dy50+QQTZvsolFf3NstWrRw7g3cg7hnca/AGu+XAm+XG+0+7in7N2bnAws/xJ7TApcb3OfQK/G7BUP8riKRmBT4+++/35SFIbknnnjCKO7omUH+97//md4SZvh/9tlnQev07LPPyqRJk8x5DAu++OKLRolHPuWtwKMzgT83CP4s8YdAIQESIAESSGwCtpLoZSX2qj3+36HsQxGBxfXSSy81xicoyTBW4eP1DMAqaGo1hBUPE9Lg5oD4cAf1UiLt8qEQqVJkh2MfbqbffvutEwzLOx70qAeesfbycwhXdx4ngWsHnRKskqFywQUXGAUJCuCMGTOcuqp7DuJBsbd90mFZhUILpQRKCHyBVdAOdR+ARRuWbVug7NnXRs9BIccHgjZqJ0XPu7dQwvGBQEmFuxSYfPnll+6oJY5tFwZ4A4BbKCmLNkFJ17pDEdT7AWzdhk+7rnDbwD0HyzQ6MbaCj+ugFmu/Fd2PPvrIeQ8OOpXXXnut4Yj7CG7QkGjbpO3D/Y3O6/XXX2/uNXRW4Feu91+kyq7mG68t5s/oveQezdHOqXbGwUzn3+B+xMRX/OdE2qZAR7AoW4aZ/hDteaESeuOEUsJhuVDlHelxwdUKgF6lPaQZZdUiToYfAf6cfvazn5lhItQBPST7Ty/iTJmABEiABEigzAjYSqKOAIdTOP7n7Rf04TkGZRZLIt98880C1w23wHJqK7F4EGPkFor8TTfdZBQstfi60+oxlE+vj9v9Q63OSOfuGCB9aSulQUm3RTsHUDzs0Was4gHBPAFbeUcYXJLUDQDGO1s0HQxeXs9+dGyWLFliJ0n4/URuEzox6hkADwZb0LmC4J7Rzo59Ptp9XHv7NwJLuVqWYYT1Q3Avq7Krv19Y4yFaFu5ZVZhjLRO/M3DUj5Ydbr7oVKi7E0aT3KN+OjKmrnxwTUPdYRxAB01/y1DsI5GYLPBaUN++fc2u9jowHAfBhAt8golXzxJ+8uqLBOt3pMORwcoKNxx/2GpBQBpcUFhYSvtjDDd/xiMBEiABEogvAVvRLU15tmuC/3tYF+GWgecafMfVGAV3AfiTQ0nBus22YBUZWMuRBm4ZGEpXBQNuNXjAv/baa3YSZx/Kf7ir0OAZC0UBecPqic4DnqNwLUDdQwms9apAaDxYNaEsIT+706OWQDwL0Qlxiyok6jKg55XVunXrTL4aXpG3idwmXDuM8sDyjZEj3OtwacL11FUAoby73ZxiuR62lV/zgRKPewVeC36IKrTIS+9r7czqMc7BwBqpsu1VP/yGgs238Ipvh+G3cu6555og1M2eB2DHwz6uD/4f4BaEa2KPBuF8pNcpKgVe/dS1chgWg+CPDS8g0Jdm4CLgGDcZhj70Amg69O7dolZ8hJeHAo8eEVYsQE8IfpD4UWCoA0OTkydPdleXxyRAAiRAAglGQC3EqJYqo5FUEau16KgrlAQ8C/AcwAMY+zDquF1zoCDjHSj4QIHCAg1w7cCzBM9GKFmxWp/RLhi1oJyhXvADxkcVOVjYbbcau83BFB08pzFqoMo4Oir4qOBcMLE7R2izxrX5B0tbEcIrQpt++OEHc2/hWuC+QKcO955eQ9yrfoqXL712mO37wa8ycW9DtAw9Rlg8youk3tCF4WqH+x7K9zvvvON0OOx88NuDGw3+i9TdDt4m+pvUDrEXWzsf935UCjyU2csvv9ydl/Fds2fHo0ev8TBUp8sfaUKttB5ja18Qt8Jvx4vXPi4ChmrwgdUdLjX4Y7OHF+NVNvMlARIgARKInYBtHLIty9HkjOcQfI3xbNDRZRit4E8eTKBkYBgdBimdF4bVXGJV4FEe3E4xUg3XDtQDE+GgaMJvGopbsNXa7GerV729FKRIRgdsxcrr2e5VZqKHVYQ2wfUY9zss4BgBggKvXhE4V9E7U/Y1SKT7BUo7DNRQzFFHrMoUjDX+QxAPI3EQjGLYb17V30sojxWvtkelwKOSulY7hhgxmQU9CQxDwCqgyq7GQcG4kdyCYUq36NJfCPdysXHHj/cx2oAJNfiDRI9W/+TiXS7zJwESIAESiI4ALFl4qOJ/G+8YCddFJVRpy5YtcxR4tVaHio9zsNLDIo5nZDQjAcHyh4FJRwhg3Ye/PZ6deP5ieN7L5VNXwrDztC3M6mOMjgpcAaCgRFpnuOhAUbHdUO3yKuJ+RWgT3LdwD8DgiA6rTmZGeCjBMoY6aoJ4WHCkPAynoeoYzTlV+nUUorQ8wEBXUkRc6LihOKAzjFWa8PtAWRMmTDBzQ4KVA8Ucv1MI4mPZVhXM98TvEKK/QT1X2jaqSawoZOzYseajlg7MPEaYupmgwhoHW/dwIyoGXyC3VUCHF3DenihRWkPidd729wr3ZohXXZgvCZAACZBAeATUwgULtVq+3Cn1wanhoRRWe2lDnViHdKHSIH8o1ZBIH85ap9K2MI7ZCoEa0NzpoKS4FWu4iKrYzzqdKIhntJuRxvfaajqMBGi7veJVpLCybhM6UKqAqv99abzQuUQ6CFYWwjVDHvobCJYe9wo6fvqJ1zWLpk3B6hxOuBqMoV+GMwIHDlgWVT+YuB5MkOeFF17o5As/drhehxL7OmDf1od1xSGkx+hJJBKVAm8XgN4+RJcOwiQfSDiTT6EQ/9///Z+Jjy+8dEBn8sLy7bZ24w8U64ziY/9potep4fG6AZ1KcocESIAESCDhCcAXXRUhPHDt0V08hLFqB5aoswXuLniI2wo/4kIh1YlqiK9LHmIfLwbChFL4HyOuCvI477zzHF/kYAYpWKzhJx/so/lhCxdVfNzPOTw7VYKVg/NYTUcNUfDf1flqsDbaSoiuBgel/5xzzgmw0iIftA3htvKBcF15BgokONpWf4RhHsHw4cO1qhViWx5t0omaWEnG3enygob7XO9JZY7VUOzJoF7pyjIs0jbFUjeslKSCkQlbX9TwaLdnn322WXsf6TGyh9Eur9+unT/0We1gYURQJ/vC+o45LBBMKA82f8XOy96PyoVGM0AvBX9YqJj2MLRHP3PmTI0WcosfNBz/8QeiFg7cjP/+979LpHvmmWecXo998sknn3QOJ06cGNQH0IkUwY49jALo9nEE2TAqCZAACZBAGRKAWyfW1saoLpRHKOB4ViFclRxV8O1q4aGKpYRxTt0nkF4FfuzuBy0spbp6GtJAwbaVeYxU6zNS89EtJrfiE0zwrhQVuEbAbRVunXATwgdD/6qUQwmwFXFNp1tYI2+88Uazvj2et9ou9/Ma+cDHH894dHyQBqPqYAJ26nbhLgs+/2gnJvqirOuuu86UhXRQolCe27gHK78uRY16qnKDMuwOFkYIPv74Y21KVFt0KlTPQAbafqzhba89j5VEsLIPpDzaBIs6OmVgiHmEMGbi3sULuIIxwGRVXXkG9fZ77XcDI4avaNoUbXGwwKMji3s3IyNDrrnmGqczP27cuJheamUbAmCwVqO1u6727xb3P35j6Lzivr7hhhuc/xakw3ntNLvzCXV8zFwQKlaQc1C+Iepvp5YEhOn6skGSmmD0XvAHhB+s/qjQS7v33ntLrKOJBGhkaRJOnNLysM/bw57aObHPc58ESIAESCAxCcDyBQORTg6DUm0r7/bbxNECLNMIBRwC5Q5xVcmDEgWrvvtBu3DhwgD3GDwHVXnH8wiK8HvvvecLICwEoZZMWP0w+mwr76FemggFGOkRH/64aBfqh9Fzr8m18LFHBwjlIS6e0UgHBQTpND93w7DEJlxpNR0Ud+0swADmXiMbjO2PskO+dngwV4hInvmov52n1h1M7HDtROj5sm4TlD18tKOI+oG76klaL3uLTqLGxz3sXjTEjhtsX63EXueVs2694oRKH06bvPLWMN16lesVBr90uKTo7wX3MD72/aXp3Hm7jzVeLFvMR8BojuaN/wkIfhPvvvuuscBHmn9SZmZmgFasLiz4U4qXoLKwUMB36F//+pexKOBtauiZ+/nCAb/qf+WVV5ohEuQH6w0++IPCUmMUEiABEiCBxCeABzcs2LCWw0IHhUcf7u7aQzmGwoi4eMBiUhvS6MPXHR/HeKYhDZRExEMa+E+HUmq88gknDIocLO9QAmAEQ1uw9RK4usBqD6s6nr1QTrF6Dfz4YV0Op37ggZEJrJah7MJxz9B0YA8eqGdFl0RtE+4/WHahpGJpSXQ2KYlJAAu44PeLUZ5gv1u75nCzweiL2wMkJhcau4BY9jEM5x6KiyU/v9PCqgE/KgDHnx8+6K1TSIAESIAEKgYBKKrqFlFajfFQDefBaueDhyuUZHziLZgEZ0+Ei6Q8GKDcVvDS0oMFXs4UqUSbLtJyyjJ+orYJrhxQ3iFY9pSSuARg/PXDAJwQCnziYi6uGUCPHz/eHMCSgB64vQpBotef9SMBEiCBqkIAk0q7detWVZobtJ2PPfZY0HNYGY5SsQng+sKoiNEVzCPQF2rC91tdaXidK+Y1DvXbtVtEBd6mEcY+rDjqTxlGdEYhARIgARIgARIgAd8JYNKqPfkWowOh5kH4XgFmWK4EykWBh38WfIAWL15cro1n4SRAAiRAApWLAFYiw4dSTAATdd3uQ+Fa+MgwsQlguUS88BLzEeCGjHmEtp80r3NiX79Ya1cuk1hjrTTTkwAJkAAJkAAJkAAJkEBlJxBsEmtMy0hWdmhsHwmQAAmQAAmQAAmQAAkkGgEq8Il2RVgfEiABEiABEiABEiABEghBgAp8CDg8RQIkQAIkQAIkQAIkQAKJRoAKfKJdEdaHBEiABEiABEiABEiABEIQoAIfAg5PkQAJkAAJkAAJkAAJkECiEaACn2hXhPUhARIgARIgARIgARIggRAEqMCHgMNTJEACJEACJEACJEACJJBoBKjAJ9oVYX1IgARIgARIgARIgARIIASBcnkTa4j6VKhT1VNSStT3SEGBFB05UiK8sgf8/YkzfG3iHXd+6mt+0WRWMyVFqlUL7OMWFhRKYWFB0OyqV68uyTVrBpzHWxDz8/ICwnhAAiRAAiRAAiRAAtESoAIfJbkatWvLSa8/XyL1ildel/UTMxprvAAAIABJREFUvygRzoCKR+CJfz4vtWrVDqj4hvVr5cF7fxcQZh/cefefpFPnrnaQUfhvuf6KgDAekAAJkAAJkAAJkEC0BKjAR0kOVva8vVlO6pS0hsX7SUlOWFXcOfusrTE1e8LEFjGl9zPxrh07JC093WSZmlpHkpKSzCdUGdu3bpGMlq1MlFoptaR6Df7EQvHiORIgARIgARIggcgJULuInJlJcTgvT7654VdO6jFvvizVaiY7x9yp+ATuv2es04gHHnlSWmS0dI6D7fz3pecEH8hlV14no085PVhUhpMACZAACZAACZBAVAQCHXyjyoKJSIAESIAESIAESIAESIAEyopApbbA12vbWtJ6dJP6me2lWnKy5GzaIlumTJdDO3Z68q2T0UIa9+8j9Tu0k8P5BZK1YqXsmD1PCrNzPONHG5hUrZo0HdRfGnbtLCnpaZKzcbPsWbRU9i5bETTL5Hp1pUm/vlJUdES2TpspSdWrS+N+faTZ0IEmDdJvmfqtSFFRQB5pjdLluP6DnLCF8+fJrp07nOOKtHPcgEHSuHET2bZ1qyxa8INn1Xv16SfNW7SQXbt2yo9zZwfEwYTUwUOHS5duPaRpsxayfdsWWfDjPJn/w5yAeOV10KZtexkweKi0bddeCvILZOVPy2XWjGmyf98xV62u3XtK6zZtZeuWzbJ44fyQVW3Zqo1079lLsg8cMPnYkfsNGCwN0xqZoOzsAzJ71rf2ae6TAAmQAAmQAAkkMIFKqcBjdZiet98szYYUK7c2/46XnC9r3v1QVr31nh0sHS+9QHDOllZjTpQjN14r8//2D9n140L7VNT7tZs2kUEP3SspjdIC8kD5O+fNlwWPPy1H8kuucgJlH22C7F+1Vo5/6hFBR0AlY+RwadSzuyz+5380yGz79hsgl191nRNWv0ED+XD8W85xRdo55bSzJLNzVzl8+LDc+vMrBKu72AIet/1mrGAlmNUrVwQo8K3atJW7fv8nqVO3rpOkU5euMnzkSbJuzSp5/K8PSF5ernOurHeuvPZGGXnSyQHF9uk3QM6/+HJ5+T/PyOzvZphzp55xjvTs3VdysrPlN7deHxDffXDJz66S7j37mLjoCNhy9c9vljp1ilkUFBRQgbfhcJ8ESIAESIAEEpzAMQ0wwSsaSfWG/O1+R3nP3blLNk2eIhs+nSz7V6812aRmNA/IrtXJoxzlvSA7x8Tf+u0ssxwk/Nr73TNWajUpnswYkDDSg6QkGfLYg47yvnvBItnw6STJ2Vw88bNJ/77S+7e3lZrrwIfuNcp77q7dpmOBdmFSbfWUwOULS82ogkX46P13TI2hoLuVXZw4YeRJRnnH/scfjHdaV79BQ7n3gUeN8l5UVGSU+5nTp8rmTRtMnHYdMuU3Y//gxC/rnTPOucBpD5abxIjAsiWLTAcFbb3x1l9LsxYZplo68oCOCM6Fklat25rT69etCRWN50iABEiABEiABCoYgUpngYcluk6r4smGGz+bLMtefDXgkjTq0U1SW1ornSQlSacrLzVx8vftl+m33iGHc4vX7F73/gQZ8vhfjLLc9fqrZP6j/wjIK9IDWPST69YxyZY9P042fvGVk0W/P95lXGLgWoPOQu7O3c45907N+vVk8TPPG3cgPVezYUOp27r0SZYavyJuly9dLDk52cZyPPrk02XKl4HLdY459UzTrNxDh2Tp4gVOE3/xqzvMeu5Q3h97+E+ycsVy59y1N9wiw0aMMpZ9WOTtc06kOO5g1ODMs4tHflDv//vtLXLo4EFTYsfMzvK7ex80K99c+/NfyKN/uc9Y4i+/qtjyDuu6KvTuKiLfevUbmOCF873djdxpeEwCJEACJEACJFAxCFQ6C3z7C88x5GFJX/bSayWuwp4ly2TTpK+d8LqtWjpK9ep3P3SUd0Q4sH6j7Fm0xMRt3Le3kybanYxRI0zSwoMHA5R3BC59fpyTbcaIYc6+18727+cGKO+Ik5+V5dTVTpOTkyOHCwudT/aB/fbpCrf/3VFXEFikGzQ4unSniNStV89ZJea7mdOddkGR1XXZv5/1bQkF/a03xgkUe8iwESc56cpqp137DoIXRkEmfz7RUd5xvHrVT7JhXfGoUfuOnUwc+LOrqw/coyDw7f/7My/IU8+9IuiEQNBmLHsJmfP9TLO1v5CP3hcHD/o7x8Muh/skQAIkQAIkQAL+E6h0Fvha6cUT83bO+aHEhE4vfHUsa/zO2fNKRNk5b4Gk9+llloiEMhjLW1ZrH3XD2beypEsDXH1g+a9eK0VSWwS6+LgrtfGTSe6goMeYnFiZJihO+GC8nHTy6UY5PeeCS+S1V4pfpnXWuRc6DD4+6mqDgDZt2znhg4YMk/4DhzjHuqOKrh1Xz8V727rNsfrZHQ8tFxNV27bvYNxl4DID//8tmzZJ+46Z0iGzs4nWf9AQx9o+ctTJppPSt1/x/A+45NiTYDXfe/7v17rLLQmQAAmQAAmQQAUjUKks8FCwoQBDcraE90Ih2x/efjGTXkf4maukNm+mu1Ftk49OoMzbs9czfUF2tglPbd7U87wGZm/arLtVbgsXmo3r15l2QyFXGXJ88ejGpo0b5IA1ytDhqOUa8WCpTk5OLvHRPGrUKPt1/PWlT6iD1+pAe3bv0uoJVpWBLDnqHtSsebErmLYd57p272XidO7SzWw3b95otvwiARIgARIgARKoPASSMjMzA9Yd7N272FVk4UJ/Vl0pK1QvvFo8wbGsykvUcjZuWCe2VTde9VyxbIk8/tf7nez//sQZZt+vN7HeceenTt7YuevuP5nlHwMCeRAWgWjviRuvviSs/BmJBEiABEiABEggPgR69eol27Ztk/z8/IACKpUFPqBlPCABEiABEiABEiABEiCBSkig0vjAq7Vw0EP3ScOunYyv+pRrbhFMGA0lWPFlxHPFq8usn/CZrBj3v4Dow556xKxqc/hQrnx15Y0B5+yDkS/+U1LSGkrWshUy+56/2Kec/f73/U7S+/Q0dfvy8p9LUWGhcy6tR1cZ+MAfzTFWzsEKOrY0GdhPjvv9b03QpAuvsk+F3B815lT52dU/d+J88vH7FXIdeNvaj8Zcff3NcsKJo81Si5iECv/wud/Pkv88+6TTVt35z7i3jPsM3Gvu/+NdGhzR9o7f3SvdevQyPui/uO7ysNLa7B+893eyYX3xhFQ7MSbj/uXo6kbwgX/puX/ap+XRJ/8tjdLTBWu1Y+17lQceedJM2s3NPSS1atWWTyd8YCar/ukvj4mGwV8+WF01veanvx895pYESIAESIAESCBxCVQ6C/zyl4qXjYQ//OBH/ixYctERs2TkJdLluiudICzXiNVmIG1OP9m8hVVPtj519LElKa2Va/S8vc3esMkcNujSSbCUpZfgBVIQ1K33HcfWe0+ukyq9f3OrOQelfstX33glZ5hF4MP33jZH8GvX9dA/fL84zIpmdqdPLV6us1XrNnLFNTcEnMa1OOnk0+SRvz8rjZsEn3uwZvVKkw5lXXvjrZKSUisgH6+D5cuKVzDCuetuuk2aNis5OXn71i2ye1fxm4Hh09+5a3cnq7POu8go7wiYc/RFTnpy5YplZhfKO+SbryfLpg3rBZNWNWzXju0anVsSIAESIAESIIFKRKDSWOD1muxfs042fTlVsOY6VpgZ+dIzYiaNFhVJSnojozxvm/GdRjfb5c+PE/NypBo1zIuWMHG1Ws2ajvJ/OC9PVr/9fkAa98Hyl1+TYU89avLHG1N7/LLYWr9j9jxZ8NjTJvreZStk/6o1Uj+zgzQbPEBGv/Gi5O/bJ7WaNDbpEGnNex/LYZefk7ssHotZWWXr5k3SomUrgyNr7x6BMuwl/3v1Jek3YJBZqeXE0aeYFz5l52RL9WrVJbVOHWOdR7patYuVYa88Jnzwrpxy+tlmAuywE04UfPAm2EOHDspvbvF+IyrqB6t7m7btBZ2Hhx572nl77B/H3u5MWn3jvy/J7Xf+3tRj7B/+bN6cWr1GdUcRx3KPb77+SkC15s6eJSNGjTFhmNirk13R0ejavacJ/+mokh+Q8OhBtaNLTHqdYxgJkAAJkAAJkEBiE6h0FnjgXvrvl2TRU/8WKN6wsNZqnO4oyXCp2f7dnICrsnf5T/L93fc77jaIr5Z7WOen33KHySsgkesgZ9MWmXPvX+TQzl3GRQbl4lPDpRSinK3TZpjUWDGndrOmJh6Wp1z63Muy+p0PXDkXHxYdPuIZXloglExbjhw+bB9W6P1vpnzp1H/q18GX1gSDu26/WeZ8N9Os+V69Rg2zhjzWjocFH+fXr10je/ccW3HIyfjoDtxR7vv9b00nQZkibc2axaseuePr8V/vv8e8VKqwsMAEIY1+NA5exvSPxx4y1nOE4S2rakWHdf7uu34leMmTLbDu6/r1ao3HebxhVmXenMCOqoZj26hxE+dwX5b3qkhOBO6QAAmQAAmQAAkkFIFKswpNMKp4Q2mDzPaSVL26HNyyTbI3Fru6BIuf0ihNGmR2kCMFBZK1fKUUuhSnYOkiDU+CEpnZXmqlp8uB9RskZ/PWsNatj7Scsoqvq9D4VZ57FRqvfG+/827p1ec4o4DfdsNVokqyV1w7DKv0dMjsJIWFhbJ500ZZv25NTOv723nHug83ni7dekhBfr5ZLjLn6NKiseZrp2/eIkMetN4q/Ow/HpP5PwR2au343CcBEiABEiABEigfAsFWoal0LjRuvHhD6c65P7qDgx7D3QZuL/EW+LqjgyBS7Fsd7/IqW/71GzSUHr36mGb9tGJp2Mo7EmBZRXwSUbAWvNd68H7WddiIUU52sPBTeXdwcIcESIAESIAEKgSBSq/AV4irUAkqGY7F3I9mwg+9VZu20n/AYMd3/e03/utH1lUmD+34oMH/fem5KtNuNpQESIAESIAEKgsBKvCV5UpWkXZceOkVjuKOJk/86D2z+koVab4vzXzirw9ISq1axvUIk38pJEACJEACJEACFYsAFfiKdb2qfG2XL10kqal1ZPu2rTJrxjRZsmhBlWcSKQCsWoMPhQRIgARIgARIoGISoAJfMa9bla31k397qMq2nQ0nARIgARIgARIgARColMtI8tKSAAmQAAmQAAmQAAmQQGUlQAW+sl5ZtosESIAESIAESIAESKBSEqACXykvKxtFAiRAAiRAAiRAAiRQWQnE7APfokUL83r5/fv3S3Z2tnk5TmWFxXaRAAmQAAmQAAmQAAmQQHkTiFmBHz16tKSmpjrtWLt2rUyePNk55g4JkAAJkAAJkAAJkAAJkIB/BGJ2oVm+fLls3LhRcnNzTa3at28vnTp18q+GzIkESIAESIAESIAESIAESMAhELMFfu7cuSazpKQkufbaa407TevWrWXlypVOIdwhARIgARIgARIgARIgARLwh0DMFnitRlFRkWRlZZnDevXqaTC3JEACJEACJEACJEACJEACPhLwTYFHnQoKCkzVqlXzNVsfm8usSIAESIAESIAESIAESKBiE6CmXbGvH2tPAiRAAiRAAiRAAiRQxQjERYFPTk6uYhjZXBIgARIgARIgARIgARIoGwK+KvCHDh0ytW7QoIFgUiuFBEiABEiABEiABEiABEjAXwK+KvA7duwwtYPy3q1bN39rytxIgARIgARIgARIgARIgAQk5mUkbYZLliyRNm3aSMuWLWX48OEycOBAOXjwoGzevFlmzpxpR+U+CZAACZAACZAACZAACZBAFAR8tcAfOXJEZs+eLdu2bTNVSUlJkbS0NMnIyIiiakxCAiRAAiRAAiRAAiRAAiTgJuCrBT49PV3OP/98U0ZeXp7MmDFDdu3aJdinkAAJkAAJkAAJkAAJkAAJxE7AVwW+e/fuTo0mTpwou3fvdo65QwIkQAIkQAIkQAIkQAIkEDsBX11o6tevb2oEizuV99gvDnMgARIgARIgARIgARIgATcBXxV4XTpy//797nJ4TAIkQAIkQAIkQAIkQAIk4AMBXxV4H+rDLEiABEiABEiABEiABEiABEIQ8FWBx6ozFBIgARIgARIgARIgARIggfgR8E2Br1mzplkyElXNysqKX42ZMwmQAAmQAAmQAAmQAAlUYQIxr0Jz8sknS9OmTSU1NVXUB3716tVVGCmbTgIkQAIkQAIkQAIkQALxIxCzAt+sWTOjvKOK+fn5smDBAtmwYUP8asycSYAESIAESIAESIAESKAKE4hZgR8/frzBl5ubW4UxsukkQAIkQAIkQAIkQAIkUDYEYlbgqbiXzYViKSRAAiRAAiRAAiRAAiQAAr5NYiVOEiABEiABEiABEiABEiCB+BOgAh9/xiyBBEiABEiABEiABEiABHwjQAXeN5TMiARIgARIgARIgARIgATiT4AKfPwZswQSIAESIAESIAESIAES8I0AFXjfUDIjEiABEiABEiABEiABEog/ASrw8WfMEkiABEiABEiABEiABEjANwJU4H1DyYxIgARIgARIgARIgARIIP4EqMDHnzFLIAESIAESIAESIAESIAHfCFCB9w0lMyIBEiABEiABEiABEiCB+BOgAh9/xiyBBEiABEiABEiABEiABHwjUCNYTr179w52iuEkQAIkQAIkQAIkQAIkQAJxJlBUVORZAi3wnlgYSAIkQAIkQAIkQAIkQAKJSSCoBX7hwoWJWWPWigRIgARIgARIgARIgASqAIFevXp5tpIWeE8sDCQBEiABEiABEiABEiCBxCRABT4xrwtrRQIkQAIkQAIkQAIkQAKeBKjAe2JhIAmQAAmQAAmQAAmQAAkkJgEq8Il5XVgrEiABEiABEiABEiABEvAkEHQSq2fsKh5Yr149qVu3rtSqVUs2b94s+fn5VZwIm08CJEACJEACJEACJFDWBKjAh0G8bdu2MmrUKKlZs6YT+9NPP5VNmzY5x9whARIgARIgARIgARIoewJJSUlSo0agSnvkyBE5fPhw2VemjEoMbG0ZFepHMd27d5fmzZubrKZOnSq4UPGS0aNHmxsDi+nv2LFDDh48KPv3749XccyXBEiABEjARwIYNW3VqpVkZGSYUdQDBw4YA8zatWs9S0H8zp07S3p6uqSmpkp2drbs2rVLVq1aJXl5eZ5poEAgTdOmTaV+/fqSm5sre/fuldWrV8u+fftKpOnSpYsgTSjJycmRjRs3hopS6c4dd9xxMnToUPOcHTduXFjtq127tuA5jeubnJzspHn++eeloKDAOXbv3HjjjSb+119/LcuXL3ef9u04mjb5VrhPGV1zzTXmt/Pjjz/KzJkzfcrVv2xOO+006dChQ0CGuPa4B+IpjRs3FnhnQD9cv3692brLwz3ZsWNHd3DAMf6Lgv23BES0DiqcAn/iiScKbqRGjRo5zZg7d27cFGq4zGivbsqUKeYP3CmYOyRAAiRAAglNAGsojxgxokQd8bbxQ4cOycsvvxxwrl+/fjJkyBBP5RrPnzlz5sjs2bMD0rRu3VqgQNijtBoByujWrVvl/fff1yCpVq2ajBkzxjkOtgMFPlwlNlgeFS0cyg46Nl4sg7XlwgsvlAYNGjing7250olwdEfLspV+dxw/jrWccNqEtl922WXmHvniiy9Mx9GPOsSaR/Xq1U0Wuo0kv7JoEzrL+L1AwDne1xSeGcOHD5eGDRs6KF544QVP12rEQQczlEyYMEE2bNgQKkqJcxVGge/Tp4+MHTvW9HRKtCKOAfbFwZ8whQRIgARIoGIQgMLdo0cPU1kMpWMEFdb0Jk2amAcvLO22dO3a1Vh/NQyW+m3btpnnDtJAeYG1zRYojmeffbaj8MPyjjlSKSkpxoIP67A7jZ0eo8fBLG9QSqqaYIQbltNwR7lhzFPlHS+g/P777z2VKC+OuBdwD+CaxVMiaROUXTVQ1qlTJ2EU+Fj4lEWbvvvuO8EHMmDAABk8eHAsVQ6aFiNsp59+uhmNCBopxAnca14dzGjuwQqjwMOKoX+C+GHv2bNH2rVrFwKTP6dw46mEGorTONySAAmQAAmUPwEYX1R5h6L21ltvBSjKUJLwXLFl2LBh5hCW+TfeeCMgPp4FMCQVFhbaSYwVDufwUB4/frzpJNgRYKlr06aNHRSwD5cEVTwCTlTRg8WLFws+4QrcnFQiUd6R5tVXX9Wkcd1G2qa4VoaZx0QAv2d4ZkDQwYc+2rJly7DzfPPNN417WNgJQkQsdwW+WbNmcvzxxwv8AfGHC2vHt99+K3CLsQXWEyjtr7zyikybNs240ZSFAm/XgfskQAIkQAIVg8DIkSOdir799tsByjhO4HnyySefOHFgKVeLPBRBt1UcCvr8+fOd+Lqjc7Ew/A0Lv1vgF4uPnwIfe4wW4JmJUQF0UPDsXLNmTYlJe7AYpqWlGUVj9+7dkpmZKXD5gbsB6lWajz3SY/4AtkiDcjAXwMuKaLcRijUUG6RDHTGaAD9zL8s6LOhqddY8wH/Lli16GLCF37Eq7lCoIKhP+/btA+KtXLmyxPw4xIcLky3bt28PS6mKV5swWqP6jG00RMdP70nUF9cZozsQOw2uu5eBEW4k6heOax2NldfmpPvIFxxRZ+hmyBt1sMWuX6RtQj3RHsx1xD23aNEi03GGOxyuAfzFV6xYYRcX0z5++7jHVXDfqTuOhukWI2ZZWVlGT0W7+/btG5ECr/n4sS1XBR4TSM4880xn6BEN6tatm1nxBSu83HbbbU4b4VuET1mL+r+XdbksjwRIgARIIDoCUND0gQzlLBzFxfZPhsIbrqhPsI4Qh5su2ngDBw6UQYMGlUgezKcf/vxQ2DGRFkqVrRBiRAFKCFZVcy8EASUNfv3u0QOUA6MbfPphgXQL0sHf12vSHuruNYcA8w6grNkCBS7YBMT+/fubjogdH0qie14BFD33cs9nnXWWnczswygIJTGYxLtNMGS66466gLUtUBwxMgTBfadpMCcDXN2C66uuJDB++iG4h66++uqA+wjXDpO1P//8c6eIaNoENzVtk5ORiLk30FGASxEE9xYml2P0yg/Bf8Upp5ziZDV9+nSBO5aXzJs3T/BJBCk3Bf7OO+90JhbhB7Zs2TJjEcGfBXqMkfyBxhOk9opRhlcPN55lM28SIAESIIHICdjKtNsyGCw3WIZhxYUiCIUE1mKsPFOawFIHSzgsyJ06dRJYfSMRDMfDouwlUJDtkQAoLVCCIeiUwHoOxRzlwyIayuCkfuIYJYAVHUoL6ox0J5xwgnzzzTcBVbjkkktMvghEGlglUVcoT9hefPHFZoKtW/G/6KKLHGs66o+RCShfGKmANR51dQviaMcCSpx9/dxxcQxlEXlCYJFVfrZVFtfS7e6E+Bg9UAu8WqdNRiG+4t0mKOZ23eGRAMG8O3vEwr4f4VeP6wKmcBXzUuB79uxp8kE6xPdDtG7o+KETgVEW/GZwX+Da7dy50xQTTZvs+qG+uLdbtGjh3Bu4B3HP4l6BNd4vBd4uN977+N2gEwS9F4yWLl0qP/30U1TFlosCjwuOPwwIbsBf//rXATcXzmNWeXkLIOPPDYI/y9KGDMu7viyfBEiABEhAApRELyuxFyP8v0PZhyICi+ull15qhtGhJMOSi4/XMwDunmo1hBUP7wyBmwPi48HspUTa5UMhUqXIDsf+ggULzFC9hsPyDmUJ9fjf//5nVtHRcwhXdx4Nc2/RKfnqq6+c4AsuuMAoSFAAZ8yY4dRV3XMQEYq97ZMOyyoUWrgdYHlE2xqJdqgrDCzasGzbgme7lwIPhRwfCNqonRQ7rb0PJRwfCJRUuEuByZdffmlH89zHyi4qt956a4AHgIbb27JoE5R0rTs6F3o/gC0U5WACly7cc7BMoxNjK/i4Dmqx9lvR/eijj5z34KBTee211xqOuI+wrDck2jZpW3F/o/N6/fXXm3sNuuIHH3wgev+pH7rGryhbrTf+Y3B98JvASAtGtNyd4dLaVC4KPJZIwp8N5IEHHghQ3hGGP7+nn366tLrH5Tx+BFi5AMOpgIt6wvJu/+nFpWBmSgIkQAIk4AsBW0kM5svqVRD+52G4UfcbPAOgzOIDiy+snLbCijxgOcWIMdw6IHgwY+QWHzxLoGhCOQv1cPbqGCAvt/uHWp1xzt0xQB6lrZQGJd0WzDeDRRDPOdRXlWKs4gHBPAFbeUcYXJJgOQRj+NPbPDQdDF5wQ3ALnu3qw+0+l6jHidwmXC90GHHPwQ1p0qRJDkZ0riC4Z/S6Oidj2MG1t19iCUs55jegw4C5GX4I7mUdecLvF51FfZeCrsyEexafYL+dSOqB35ntYaFlR5JHqLioI/JHJxW/H/x2MVqBzic6bOiUYAK9128mVL7losDDHw+CHlppE2hCVT4e5/CHrRYE5A/osLCU9scYj7owTxIgARIggcgJ2IquukuEkwv+72FdhFsGJqfhWYVnAgTuAvAnh5KCd4LYglVkYC1HGrhlwF1FFQy41eAB/dprr9lJnH0owOGuQgOrNqx1yBtWT3QeYKGFa4GtgDiZWztYWcc9FwBWTSgXyM/u9KiVEM/Cm266ycqleFddddQtRyMoq3Xr1vmiWGm+5blN5Dbh2mGUB5ZvjBzhXkdHEdcT9x0EynuozmOkbG0rv6aFEo97BZ1fP8TunOp9rZ1ZPUY5MLT6oWzjNxRsvoUf7QEzd/4YDcNkefyO0QHD7xr/A3b7Siu7XBR4/DlCtEdVWiXL8jw6FFixAMNC8IPEjwJLjWFocvLkyWVZFZZFAiRAAiQQBQFYCVVUGdXjcLZYrUVHXaEk4FmA5wAUJOzDqON2zYGCPGvWLPOBAoUVUeDagWcJlH4oWUuWLAmn+KBx0C742EM5Q73gB4yPKnKwsKMeXhJM0YGyBAVClXF0VPBRwblgYneO0GaNa/MPlrYihFeENv3www/m3sK1wH2BTh3uPb2G7hX9YuXu5UuvHWb7foi1HE2PexuiZegxwuJRnpZbFlt0SvBh8P43AAAgAElEQVRWW10xCx4gkRiLy0WB1wuhvfiyABVuGeipomOBD0ACKP7Y7Mms4ebFeCRAAiRAAmVPAK4fKrZlWcMi2eIhC19jPBt07hb8VmFBCyZQMuBPjwl9WLEDggUaYlXgkQ/cJGC5g2sH6oEJn1A04TcNxS3Yam2lKTv6XLYVpEhGB+x0ifhsD3atQoVXhDbBkwH3OyzgGAGCAo8tBOcqemfKvgahrlVFPYcJ5SpwqykXBf7RRx81FgGtyH333VfCQqHn4AMEn8FEWWlG6+W1xfAUJtTgDxI9Wv2T84rLMBIgARIggfInACshHvz43+7cuXPYLiqhao6V0lSBV2t1qPg4Bys9LOLw4Y1mJCBY/jAw6QgBrPvwg4bfPqzyWLXDSwlAHdxiW5h1RBwdFQzjw5oeaZ3hooMVQmw3VHeZFe24IrQJ7lu4B2BwRIdVJzMjPJScccYZzqgJ4n322Wcl5l2ESp+o51Tp11GI0uqJe93WR9HpUZed0tLGet7+XQYbPQtWRuDbDILFCiMcvX/4/ukn1A9fJ1Tgh65/iGEUUS5RbH+vcG+GcqkoCyUBEiABEnAIYHk2CCzU8EH3EiiwtoR6btlLG9oTY0OlQf5QqiGqINvl+bEPKyvWcVcJNloMJcWtWMNFVMV+1ulEQTzP3Yw0vtdW02EkQNvtFa8ihZV1m9CBUgVU/e9L44XOJdJBsLIQrhny0N9AsPS4V9Dx00+8rlk0bQpW53DC8ZuAYNQpnBE4cMBkbv1g0npZCVzgVDCXJRLxTYGPpFC8vlgnKWAJSbxswBa8POKpp56yg8w+/kAxxICP/aeJXqeGx+sGLFEZBpAACZAACSQsAfijqyKEZYl1ZRlUGA92rNqBJepsgbsLHuK2wo+4UEjPPfdcJ6oueYgAvBgIE9Hgf2y7qSCP8847z/FFtlfucDISMRZr+MkH+9hxscQiPu7nnP0MDVYO8jn99NOd+mDC4YgRI0z2sDbaC0romvBQ+s8555wAKy0SoG0I1+UOtY66igYUSHC0rYsIwzyC4cOHa/QKsS2PNulERqwk4+50eUHDfa73pDLH2vqqZ3mlKeuwSNsUS/3g5aGCkQlbX9TwWLb4/env1Z64q2HY2v8F559/fonfLc7jt4D/FghG62zDQDj1KxcfeEymeemll+Tmm282fwxYShJDBxiqAmj8aXg15JlnnvHsTT355JNOWydOnBjUB9CJFMGOPYyCC2UfR5ANo5IACZAACZQhATxnsHwj1miH8ggFHJZAhKuSowq+XS28GAfrnOOcuk8gvQr82N1D3bCU6psckQYPePsBDh/lYNZQTG7FJ5g8++yzzim4RmBlHLh1wk0IHwz96+gwVpWxFXEn4dEdWCPxBnQ8X9V3Hqcwkc4W5AMff1gi0fFBmuzsbMME7PCMhrjLgs8/2omJvijruuuuM2WBJZ7t4Oh+0RWs/FhuU0UVIpRhd7AwQvDxxx9rtKi26FTYIyl6XbGEn732PN4oqtbQ8mgTLOrolIHh5Zdfblx3ce/CXzoYA0xW1ZVnAMfvtd+jAm4liqZNVvKIdmGBR0cW925GRoZcc801Tmd+3LhxJZYujyhzEfOOCK8lM6+44gonK6woo0uswsCMeuAew3WEK7b+hpAAv49g19XJ0GMnbhZ4VDKUYMjv7rvvdvzk8aeAPyI0CmkxScctXn+20cRxpwl1bA972sONodLwHAmQAAmQQPkTwBymd955xyifqA2Ualt5x8uWbMEyjVDAIVDuEFeVPDx0YdVX67SmwyvX7ecEXENVecczC4rwe++9p9Fj2mINdbVkwsqH0WdbeYcPczCBAoz0iA/lA+1C/fDiHa/JtfCxRwcI5SEuFF+kwzMa6TQ/d3lYYhMrtmk6KO7aWYABzP1mXDC2P8oO+drhwVwhwtELtI6ov52nhoOJHa6dCD1f1m1Chwof7SiifuBudz60brpFJ1Hj4x6OZr39UHqbctatlmtvQ6UPp01eeWuYbu3yQu1PmDDBTOjV3wvuYXzs+0vTu/N2H2s83ZZ2XuPp1nZPQ/m28o7O8uuvvx7VZOOkzMzM4jV6jpaEtSgh+FMqK8EPHAvaY3lJ9JrQU0skS/eVV15phkvAA9YbfPAHhaXGKCRAAiRAAolPAA9OWLBhLYeFDgqPPtzdtYdyDIURcfEswqQ2pAn14IbVHWmgJCIe0sB/OpRS4y433GMocjB4obMAKzzagq2XwNUFVnsoCu+++65Zqxur18AKD+tyOPUDD4xMYHUZZReOe4amA3vwQD0ruiRqm3D/3XDDDUZJxdKS6GxSEocAfjvq/o3fA35HUOyD/QfZNYefPEZf3HpxubjQ2BXDPobmwn2RhTttWRzDqgE/KvxhomeOD3rrFBIgARIggYpBAIqqukWUVmN1Tyktnn0eD1coyfjEW+Av616HPtwyYYByW8FLSwseeDlTpBJtukjLKcv4idomvGQMFmYIlj2lJBYBdHi9VoeKpZYJocDH0oCySAtL+/jx401R6DmhB+7lo18WdWEZJEACJEACwQlgUmm3bt2CR6giZx577LGgLR07dmzQczxRMQjg+sKoiNEVzCPAqAoEXgzqSsPrXDGupbuWoX67dlwq8DaNMPZhxcGIAYUESIAESIAESIAEyosAJq3ak28xOhBqHkR51ZPlxodAQvjAx6dpzJUESIAESIAEqjYB+M+2bdvWuA/BN5pSeQjguuL6wj0DKwJhhR+3n3TlaW3VbUlC+8BX3cvClpMACZAACZBA/AhgZR18KJWPwPr16wUfStUkELdlJKsmTraaBEiABEiABEiABEiABOJLgAp8fPkydxIgARIgARIgARIgARLwlQAVeF9xMjMSIAESIAESIAESIAESiC8BKvDx5cvcSYAESIAESIAESIAESMBXAlTgfcXJzEiABEiABEiABEiABEggvgSowMeXL3MnARIgARIgARIgARIgAV8JUIH3FSczIwESIAESIAESIAESIIH4EqACH1++zJ0ESIAESIAESIAESIAEfCVQw9fcqlhm1VNSSrT4SEGBFB05UiK8sgc8etuJvjbxd89O9TU/ZkYCJEACJEACJEAClYUAFfgor2SN2rXlpNefL5F6xSuvy/qJX5QIZwAJkAAJkAAJkAAJkAAJ+EGACnyUFGFlz9ub5aROSWtYvJ+U5IRVxZ1TWiyPqdmTtnaNKT0TkwAJkAAJkAAJkEBlJ0AFPsorfDgvT7654VdO6jFvvizVaiY7x9whARIgARIgARIgARIggXgQ4CTWeFBlniRAAiRAAiRAAiRAAiQQJwKV2gJfr21rSevRTepntpdqycmSs2mLbJkyXQ7t2OmJs05GC2ncv4/U79BODucXSNaKlbJj9jwpzM7xjB9tYFK1atJ0UH9p2LWzpKSnSc7GzbJn0VLZu2xF0CyT69WVJv36SlHREdk6baYkVa8ujfv1kWZDB5o0SL9l6rciRUUBeaQ1Spfj+g9ywhbOnye7du5wjivqTpu27WXA4KHStl17KcgvkJU/LZdZM/6/vTMBj6JI3/gXAiQESIAAgXAoGO5TbgU5xftCdnX9e+HBeuzqri6u9y0eC7vruSoKsuKBioiKuoIKchPOcCN3DghXCCEhd/J/3hqrUzOZSSYzPTEzeet5Jt1dXVVd9euezNtff/X1Esk6WebW5Dq2fgMGS2zz5rJ7107Zt2e3tG7TVkaMGqvaOHr0iHw3f54cSku1quE89R8wWHr27iuxzVuo/AP798r2rZtl6+Ykq5xeQfkxYy+SsLAw1ZfIyAZyzrAR0qVrd8k8kSHLliySHdu26OLlloOGDJW+/QZKo8aNVfvLly6S+DbtpEXLOElLTZH9e3eXq1OnTh0ZfM4w6dKth7SMay2H0w9K0oZ1snH9mnJlzQywaNK0mcrKzj4liSuXmbu5TgIkQAIkQAIkUIMJhKSAR3SYnvfeIXFDHOLW5H/WNeNk72fzZPfsz81sOevaqwX7zNT2/JFSMnGCbPzHy3JswyZzl8/rDVq2kEGTH5eIZk2d2sDxj67bKElTX5WSgkKnfdiA2MeYkLJ275NzX3lRIBh1ih8xTJr17C5bXntbZ6ll334D5Lobb7HyomNiZN6c2dZ2MK7cMGGijBg91qnrffoNkHG/v05mvP26JK5a7rRPb9x4yx+VON6yaaPUrVtXunbvqXdJQueucs7Q4fLniTdJfn6eNG4cLVNfmyYQyGZCnQsvuUKS9++TlyY/IQX5+dbuiIgIufb6CWq7eYs4GXX+hUrM6wKDzz1Pvpz7qcyfN0dnqWV4eLg8+Piz0qFjgpXfrUcvueyq8ZKfny8xMU3UDcfzTz9i7cdK2/ZnyKSHnpSGjRpZ+Z26dJVhI0YrsT/1hWfUWKydxspNt90hDRs66hUWFlLAG2y4SgIkQAIkQAI1nYCzOqnpvfWyf0P+8bQl3vOOHpPUhYsk+duFkrVnn2ohKr6VU0ttx46yxHthdo4qf2jZShUOEn7t/R57QCJbxDrV8WkjLEyGTHnWEu/HkzZL8rcLJCftkGquRf++0vu+P1Xa9MDJjyvxnnfsuLqxwLgwqTY8on6ldYO9wCVXXG2Jd4hnWJphES/B+MPDZeLdf5G41vEVDrNzl25KvKPO4fRDcmDfXsnLzVV16oQ7vhJ169VT4h1lUpMPyNrElbJ86WLLQt/+zA7y2FMveDzO6LEXSUlxsepbxvHjVrnLrhwvdes6z5W4656/WeL9ZGamugFJS00WWPAh3t2l6Jgm8vgzLynxXlpaKnt27ZQVSxcL6iGd2TFB/vqAs+B31w7zSIAESIAESIAEgo9AyFngYYlu2LaNOhMp3y2U7e++73RWmvXoJlFtWpflhYVJpxuuVdsFJ7Nk6d33S3Gew6q6f+7XMmTqc0osd731Rtn40stl9XxYg0W/XqOGqub2aTMl5fsfrVb6PTpJucTAtQY3C3lHy0SfVejXlfrRjWXL69OUO5DeV79JE2nUzjFunRdqSzxxuPRyx1MSCO6/33eX5J4+rYZ5VkJnZcWG+8qE2+6Ul557wuPw60dEKJeWZ594yMnlBhZzbVHPycmWb7/+Qr75aq6Vpxv8+2PPSKfOXZULDoS0O7ed4uJieXjSPXIiw3EeIeivu/FWdZPRb+Bgy+IN63mvvv1U0+mHDsoTD99vvUfg7r9McnJ/0sfH8s577lc3GBDvU55/UnbtLIv+M+H2u2To8FHqqQIs8uY+sw2ukwAJkAAJkAAJBCeBkLPAdxh/hToTsKRvnz6r3FnJ2LpdUhf8ZOU3atvGEtV7PptniXcUOHUgRTI2b1Vlm/ftbdXxdSV+1HBVtej0aSfxjsxt02ZazcYPH2qtu1s5vHqtk3hHmYLMTKuvZp2cnBwpLiqyPtmnsszdQbV+ZoeOAvGNtPB/8y3xju09u39Rbi1Y73BWJ1Wmoj9TX3ymnPBe9MP3AuGNBCH/xWcflxPv2Lfwu/lW0608WPs3rE20xDsK/7TwfwKxjdQ6vuxGa+h5oyw3nfenv2WJd5SbNaP8ewaQjxsZ3EAgrV65rJxAn/3hTOtYQ4ePVuVc/2SfOmVdE6dP2zvHw/VY3CYBEiABEiABErCXQMhZ4CNjHRPzjq5ZX25Cpzt0DQ1r/NHEdeWKHF2XJLF9eqkQkRBO/rxltcGvbjgnd+0tdxy4+sDyHx4ZIVGtnV18XAunfLPANcvjNiYnhsoExXbtz7TGuWrFUmtdr8C3/YwOHZWVG+40Wozr/XqJCaWHDx3Umx6X8H+/9MrxMvicodKoUbRERJZ/825ME/cuLpgo65qKi4uU+0x0dIy1K75NW7UOVx1MxDXTqVNZkpeXq1xpzPz2Z5RxwMTX/gOHmLvVOp5EIJllzUKP/f0v5ibXSYAESIAESIAEgohASAl4CGwIYKScgw6/8srOhekPb76YSdeDn7lOUa3ivG5X1zGX9X6dbJifccLMttYLs7MdAr5VSyvP3Up2apq77JDP02IXA3UXSSfj+DGLQZu27SX5gGPOg5X568qJjAzXrHLbcI2ZPOWVcuJZW9F1hQaRUXrVaZmRUdYXvaOkuESkrqgbDJ0X28IR3cbTzUZ+Xn65PnQ0njDgJsN1oq1uG0tXf3tzH9dJgARIgARIgASCk0BYQkKCU9zB3r0driKbNtkTdaW6sLzz/qfVdagafZyU5P1iWqoD1dmd27fK1Beetpp/6U8j1bpdb2J98I3FVttYmfTwkypUolMmN7wi4Os1MfGma7xqn4VIgARIgARIgAQCQ6BXr16Snp4uBQUFTgcIOR94p9FxgwRIgARIgARIgARIgARCjEDIuNBoa+GgyU9Ik66dlK/6opvvEkwYrSgh4svwtxzRZQ58/Z3snPmRU/Ghr7yootoU5+bJjzdMdNpnbox49zWJaNpEMrfvlMTHnjN3Wev9n3hQYvv0VH374brbpLSoyNrXtEdXGfjMo2obkXMQQcdMLQb2k7Mfuk9lLRh/o7mrwnVEVvm/m26zyiCqSjDGgYe1H+Ehn/s1EhB84Ke/9Zo1Lqy89O83pVlsrCCu+d23Xe+0Dxv/fmO6FQf+lanPl9tvZkz77ycqhvuaVStk2n+cow/97eEnpGs3Rwz5We9NkyWLflBVIxs0kNfe/q9a/88rU2XDukSzSXnjnVlqEu7yJYtk5rtvqn14SdRfJjnCPX7z5VyZ93lZjP4+Z/eXP9/3oCqHF0+ZceDfnjlbuc6kpiTL049OcjqONxvPvPhvp8m0+vvjTV2WIQESIAESIAES+G0JhJwFfsd0R9hI+MMPfvEpQchFK6mQkddIl1tusLIQrhHRZpDaXzxWvYVV72x34ZiykJRG5Bq931xmJzve4BnTpZMglKW7hBdIIaFvve8vi/der2GU9P7r3WofRP3BH392V73W52Hi6fFjjrfoYvJm567dLSaXXfU7Jd6RscbDi5yswl6s5OY6bvwgovFmVJ0uuvRKS7zrPH+WmHirw1BefPlVguMhtYxrpWLae2p76WJHCNK27drL9Tff7lQM1xfCVr74rzekeYuK51M4VeQGCZAACZAACZBAUBAIGQu8pp21d7+k/rBYEHMdEWZGTH9d1KTR0lKJiG2mxHP68lW6uFrumDZT1MuR6tZVL1rCxNU69etb4r84P1/2fDLXqY7rxo4Zs2ToKy+p9vHG1B5/dljrjySuk6Qpr6riJ7bvlKzdeyU6oaPEDR4gYz58VwpOnpTIFs1VPRTa+/lXUuzi5+R6rNq8/eF/p8u9f3tIWZ8feOQpycHE37rh1kRPhMz8+IP3/Ea0avkSGT32YmUxh+UeL1hCFBq8XAnHCK9r31fng5nvyl33/k2NCRZ3RKTRE1PNdXNQH70/XfoNGCSNo2Nk5JgL5LwRoyU7J1vC64RLVMOGVn08FXCX6vwapcbdPuaRAAmQAAmQAAnUbAIhZ4EH7m1vTpfNr7wpEN6wRkY2j7VEMlxqDq9a43RWTuz4RVY//LTlboPy2nIP6/zSu+5XbTlVctnIST0oax5/TnKPHlMuMjguPnVdBBSOc2jJclUbEXMaxLVU5RCecttbM2TPp1+4tOzYLEUEEx8SBKCZ8HbQYE6bk9bLy1MmW/HZ8SIkiGokWOfx8iT9VlXXcZaWOljopet+c/vjWe+pt7zqPISLxHHy8/Nk8lNlbzg1o8eUlpTNBy8p8czZ9ZzA1eZfLz6rLPGIcgPxjvCRcKnJPOGIWJRfkKe7opZoY9K9dwhcfFAHNxR4ayueFqA+9uMNs/pFUk6VRaRZc0f0G+SfzHQfFcm1DrdJgARIgARIgARqBoGQiULjCSfeUBqT0EHCwsPl9MF0yU5xuLp4Kh/RrKnEJHSUksJCydyxS4pycz0V9Ss/DIIroYNExsbKqQPJkpN2yKu49X4dNICVdRQauw7hGoXGXbtwD+nSrYcUFhTI1i1Jyhrvrpw/eQgn2bVbD2WJh7sLYsgHMiF+PUI/4kYB6fV33peIiEjlZw9/e08JkYc6JnSSoqIiSUtNkQP793p8ZwFePvWs8VbhN16e4nSz4ukYzCcBEiABEiABEqheAp6i0NjnB1C94/H6aHhD6dG1G7wuD3cbuL0EOsHXHTcIIvgw+UIAseDdxYP3pS1PdeCfnmiDT72n9nW+tprDoq+t+njbKsQ70m6XlzzpenqJUJH4eJOGDh9lFcNTi43rnZ9IWTu5QgIkQAIkQAIkUCMJhLyAr5HUQ7BT3ljMQ3DYtgxp4JBz5fY77xXE1l+/drUcOXxYEjp1lksuH6fah5//yuVLbDkWGunRq4/V1n+nv2Wtc4UESIAESIAESCA4CFDAB8d5Yi9DnAAs8N169FIfc6gIifmfV6eaWX6v//OFZyQiMlL5yQfaJcjvzrIBEiABEiABEiCBcgQo4MshYQYJVC+BzUkb5Is5swUx4TERNSIiQjKOH1d+7J/NnmVN2LWrVzk52YIPEwmQAAmQAAmQQHASoIAPzvPGXocQAUTN+farueoTQsPiUEiABEiABEiABAJEICTDSAaIFZslARIgARIgARIgARIggd+cAAX8b34K2AESIAESIAESIAESIAES8J4ABbz3rFiSBEiABEiABEiABEiABH5zAn77wLdu3Vrq1asnWVlZkp2drV4k85uPih0gARIgARIgARIgARIggRAl4LeAHzNmjERFRVl49u3bJwsXLrS2uUICJEACJEACJEACJEACJGAfAb9daHbs2CEpKSmSl+d49XuHDh2kU6dO9vWQLZEACZAACZAACZAACZAACVgE/LbAr127VjUWFhYmEyZMUO407dq1k127dlkH4QoJkAAJkAAJkAAJkAAJkIA9BPy2wOtulJaWSmZmptps3LixzuaSBEiABEiABEiABEiABEjARgK2CXj0Ca99R8Jr4ZlIgARIgARIgARIgARIgATsJ0ClbT9TtkgCJEACJEACJEACJEACASMQEAGPsJJMJEACJEACJEACJEACJEAC9hOwVcDn5uaqHsbExAgmtTKRAAmQAAmQAAmQAAmQAAnYS8BWAX/kyBHVO4j3bt262dtTtkYCJEACJEACJEACJEACJCB+h5E0GW7dulXat28vbdq0kWHDhsnAgQPl9OnTkpaWJitWrDCLcp0ESIAESIAESIAESIAESMAHArZa4EtKSiQxMVHS09NVVyIiIqRp06YSHx/vQ9dYhQRIgARIgARIgARIgARIwJWArRb42NhYGTdunDpGfn6+LF++XI4dOyZYZyIBEiABEiABEiABEiABEvCfgK0Cvnv37laP5s+fL8ePH7e2uUICJEACJEACJEACJEACJOA/AVtdaKKjo1WPYHGnePf/5LAFEiABEiABEiABEiABEnAlYKuA16Ejs7KyXI/DbRIgARIgARIgARIgARIgARsI2CrgbegPmyABEiABEiABEiABEiABEqiAgK0CHlFnmEiABEiABEiABEiABEiABAJHwDYBX79+fRUyEl3NzMwMXI/ZMgmQAAmQAAmQAAmQAAnUYgJ+R6EZO3astGzZUqKiokT7wO/Zs6cWI+XQSYAESIAESIAESIAESCBwBPwW8HFxcUq8o4sFBQWSlJQkycnJgesxWyYBEiABEiABEiABEiCBWkzAbwE/Z84chS8vL68WY+TQSYAESIAESIAESIAESKB6CPgt4Cncq+dE8SgkQAIkQAIkQAIkQAIkAAK2TWIlThIgARIgARIgARIgARIggcAToIAPPGMegQRIgARIgARIgARIgARsI0ABbxtKNkQCJEACJEACJEACJEACgSdAAR94xjwCCZAACZAACZAACZAACdhGgALeNpRsiARIgARIgARIgARIgAQCT4ACPvCMeQQSIAESIAESIAESIAESsI0ABbxtKNkQCZAACZAACZAACZAACQSeAAV84BnzCCRAAiRAAiRAAiRAAiRgGwEKeNtQsiESIAESIAESIAESIAESCDwBCvjAM+YRSIAESIAESIAESIAESMA2AnU9tdS7d29Pu5hPAiRAAiRAAiRAAiRAAiQQYAKlpaVuj0ALvFsszCQBEiABEiABEiABEiCBmknAowV+06ZNNbPH7BUJkAAJkAAJkAAJkAAJ1AICvXr1cjtKWuDdYmEmCZAACZAACZAACZAACdRMAhTwNfO8sFckQAIkQAIkQAIkQAIk4JYABbxbLMwkARIgARIgARIgARIggZpJgAK+Zp4X9ooESIAESIAESIAESIAE3BLwOInVbekamFmvXj2Jjo6Whg0bSn5+vhw+fLgG9pJdIgESIAESIAESIAESIAF7CAStgK9Tp45cfPHF0qZNG4vEyZMn5ZNPPrG2uUICJEACJEACJEACJBDaBMLCwqRuXWdJW1JSIsXFxSE7cOfRBtEwEVZHi/fTp0/LsWPHJD09PYhGwK6SAAmQAAlUB4HIyEhp27atxMfHS6NGjeTUqVOSmpoq+/btc3t4lO/cubPExsZKVFSUZGdnq9+Y3bt3qye97ipBQKBOy5Yt1VPhvLw8OXHihOzZs0dgXHJNXbp0EdSpKOXk5EhKSkpFRUJu39lnny3nnHOO4Hd95syZXo2vQYMGMmbMGHV+8VRep2nTpklhYaHeLLecOHGioPxPP/0kO3bsKLffrgxfxmTXse1q5+abb1bfnQ0bNsiKFSvsata2di666CLp2LGjU3s497gGApmaN28ujRs3Frxs6cCBA2pZ0fGaNm0qZ555psTExCjNijq5ubkVVfG4L2gFPP4ZI2HgH3zwgccBcgcJkAAJkEDtJQBjz/Dhw8sBwNvG8fsxY8YMp339+vWTIUOGuBXXI0eOlDVr1khiYqJTnXbt2gkERP369Z3ysQExeujQIZk7d661D0+Qzz//fGvb0woEvLci1lMbwZYPQY0bG3csPY1l/PjxShDp/Z7eXKn366U+lin69T47l/o43owJY//DH/4guOkbQXoAACAASURBVEa+//57deNoZ198bSs8PFxV1cuqtFMdY8LNMr4vSOAc6HN6xhlnyLBhw6RJkyYWinfeeUcKCgqsbdcV/I8466yzrOwePXqo9UWLFsm2bdusfG9XglbAw4qClJGR4e1YWY4ESIAESKAWEYDg1j+SeJR+5MgRZU1v0aKF+uGFpd1MXbt2VYJb58FSjye7sLChDsQL1s0ES9rll19uCX5Y3tPS0iQiIkJZ8GEddq1j1sdjfszfcpcgSmpbguUdltOsrCyvht6sWTNLvOMFlKtXr65QRJmN4skKrgGcs0CmqowJYhdjQsLcPngXBHuqjjGtWrVK8EEaMGCADB48OCDY8IQN7ttag3p7ENywa/GOGw2cVzwRxI3GqFGj1DW/a9cub5tT5YJWwOOCQKro8ViVSLAwCZAACZBAyBCAZUyLdwi12bNnOwlliCRYx800dOhQtQnL/IcffuhUHr85ffr0kaKiIrOKssJhH6y+c+bMUTcJZgFY6tq3b29mOa3DJUELD6cdtXRjy5Ytgo+3CW5OOlVFvKPO+++/r6sGdFnVMQW0M2zcLwL4Pmvxjht83Ghqd25PDeOJANzrkCDc9VxN3NzDNQmGAfwvqlYBjzsH3Ikg/fjjj5KQkCCweMBSsXXrVvnhhx/k6NGjaj//kAAJkAAJkEB1ERgxYoR1KPxgulq58fT2m2++scrgx1Rb5CEEXctDoG/cuNEqr1datWqlVpOTk8uJd+yAjys+diZEXsPTAtyk4McfNyh4UrB3795yk/ZgMYTfLYTG8ePH1e80XH5gBUS/KvOxR324rGKJOjgO5gJU5qYCYQ1hg3roI54mwM/cnWUdTzG01VlzAv+DBw/qTacl/I61cIegQkJ/OnTo4FQOgghPOMyE8nBPMROi18FKXlkK1JjwtAZ+0UjaOIl13PjpaxLbOM94uoNk1sF5d2fMhEbTfuE413Y9aUC74Ig+48kW2kYfzGT2r6pjQj8xnu7du6trbvPmzerGGe5wOAeYu7Jz507zcH6t47uv3bLREK477Y7j2jCup8zMTFm2bJkad9++fSsV8D179rTOK9yidMITFnw3kPCUDt9ntO1t8ssCjy/Rbbfdpo6FxxXopE4Afc0118jkyZNl7dq1Otu2pR60bQ2yIRIgARIggZAgAIGmf5AhzrwRLqZ/MgSvt0n/FlXkJuNtW96UGzhwoAwaNKhcUU8+/fDnh2DHRFqIKlMQ4okCxNe3335bTuhCpMFn1/XpAY5z7rnnKp9+WCBdE+phQql2FzD3o+/u5hBg3gHEmpkg4DxNQOzfv7+6ETHLQyS6ziuA0HP1Sb7sssvMamp9yZIlApHoKQV6THFxceX6jr6AtZkg7vBkCAnXnR4v5mSAq2vC+dWuJO+9957rbp+2cQ3ddNNNTtcRzh0ma//vf/+z2vRlTDD+6jFZDYmoawM3ChC8SLi2MLkcT6/sSPhfccEFF1hNLV26VOCO5S6tW7dO8KlK0t8FXNOmQL/kkkucmunUqZPb8+hUyNjwS8Ab7SjxjkeLsFAglA8uPPwTfeyxx+TGG29Us/7N8v6so319In2dvevP8VmXBEiABEig5hIwxbSrZdBTr2EZhhUXQhCCBNZib/yPYamD5QwWZPwAV/UxOB7HwxjmLkEgm08CIFoggpFwUwLrOYQ5jg+LqGsYPbNNWLmRMA8AVnSIFvQZ9c477zz5+eefzeLKAId2dR1YJdFXiBEsf//736sJtq4W7t/97neWNR39x5MJiC88qYA1XrdpHgxl9I0FRJx5/sxyeh1iEW0iwSKr+ZlWWZxLV3cnlMfTA22B19Zp3a6nZaDHBFFn9h0RipAw+dl8YmFej3higHMJpnAVcyfgtVEV9bx5wuBp/Ga+7htu/HATgacs+M7gusC5014XvozJPA76i2u7devW1rWBaxDXLK4VGIntEvDmcQOxDgs/kjmnBZGJcJ1D1ON7C4baNcfbPtgm4PElvvfee63HO7hwYH1Hp2Clf/nll73tU6XlcOJ0wj8iJhIgARIgARLQBEyR6M5KrMuZSwg+iH0IEVhcr732WvUYHSIZllx8UMY14QmzthrCiocJaXBzQPlffvnFrYg024Ag0qLIzMd6UlKSelSv82F5x28q+vHRRx85hZ9Dvnbn0eVdl7gpgburTldffbUSSBCAy5cvt/qq3XNQDsLe9EmHZRWCFqIEIsS0RmIc2hUGFm1Yts0EsWeeG70PghwfJIxR36To/a5LiHB8kKA14C4FJnDbrSyZLgx333234llRneoYE0S67jtuLvT1ALYQyp4SDKa45mDQxE2MKfBxHrSh026h++WXX6owrOgXbionTJigOOI6Wrx4sequr2PSY8X1jZvXW2+9VV1ruFn54osvRF9/VRW7ut3fYqlvTvXNOJjp+Te4Hi+88EL1P6eqY3J2BPNjZPiCa98sNINt3D0iVfZl9Oaw+ILijh8O/7o9XNhVtXZ4cyyWIQESIAESCF4Cpkj05MvqbnQQt4gPrxMEEMQs5nrdcccdAtcN1wTLqSliIf7hGwwh/8c//lEJLG3xda2rtyE+3X1c3T+01Rn1XK3LqK9/c3W7rkuIdDPBjxcJ4l/7YGMbUTyQME/AFO/Ig0uSdgPAvDcz6Xp4OgA3BNcEjYD5ccGUavKYcBMDCy4S3JDMhJsrJFwz+mbH3O/rOs69+R2BpVxbljE3w46Ea1mLXf391e9S0MfCNYuPHQnfM3DUH31sO9pGG/rJmHblg2sa+g7jAHSs/i5D2Fcl2WaBX79+fbnj4m4fjz/044NyBaqQgTt38+4E/wgw0YiJBEiABEiABEwCptCtTDyb9fADDusi3DIwOQ2+49qKCXcB+JNDpCBus5kQRQbWctSBWwbcVbTAgFsNrIazZs0yq1jrEP/eRqGBVRvuqWgbVk/cPEAAwLVACzmrYZcVuJtqAaF3waoJsYT2zJse/VsLKy5uQlyTFiTaLUfv16z279+v2tX5wbysyWPCucNTHli+8eQI1zq8IXA+cd0hQby7ujn5cz5MK79uByIe1wr84+1IWtCiLX1d65tZvY19mLdih9jGd8jTfAs7xqPbwPnB/wfoYpwT82kQylT1PNkm4N25sui7dPzjw8f8p6oH5O1y3rx56uKAjxVCfUHQwyL/8ccfq5nZ3rbDciRAAiRAAqFNQP/2YJRajFZlxIjWol1NIBLgE49H3vgBxjrcZlxdcyCQV65cqT4QUIiIgifHsKpB9ENk+Wt9xrjw1BniDP2COyk+WsjBwu5pXpgnoQOxhKcGWozr32vNC/s8JfPmCGPWZU3+nuoGQ34wjAnGU1xbOBe4LnBTh2sP5xHJ7iAi7nzptbYzrwe7zi+ubSR9DL2NvEAcz65+m+3guwc3Gvwv0u52cE3T30l9Q+yOrdmO67ptAl5/cc0D4OLXyYSu86qyxMDwweMTPFK59NJL1V0mHm/afYFWpV8sSwIkQAIkULMImC/4My3LvvQSlj/4GsM6hsmeSDAg4Qmzp4TfO/jTY0IfInYgIZqLvwIe7SxYsEA9fYZrB/qBiXD4rYXfNIQb3gbpLlUmdtwJpKo8HTB/47UgcdePYMoLhjHB1xzXOyzgeAIEAY8lEvYF+82UeQ6C6dox+4r/IRDweBKHhKcY5ptX9fcFYUKrkmwT8PhH4pp0Z3GHX9VHA65tmdtwn8E/G9xhaquBuZ/rJEACJEACtZcAjD344YewxQtUvHVRqYjY9u3bLQHv7e8OrPSwiMON1JcnAZ76A39g/YQA1n342yOqDKzyeDzvzhfenSuraWHWPsb4rYabAoxyVe0zXHQgVCAmQyUFw5jgvoVrABNZccOqJzMjv6KEMIam8fW7774rF3azovo1dZ8W/fopRGX9BAMzdCxuerTLTmV1vdkPYa7nB6BvCNuqE6IIaWO3/g7qfZUtbZvEOmzYsHLH0tFiXB81livoQ4ae2ODtCfLhEKxCAiRAAiQQpAS0hQsWam1Mch2K/uHU+RUJVjO0of79Qb2K6qB9iGqkqv446z5VtoSV1RQE5mRUsy5Eiquwht+0TqZvs54oCH9dV0a6vLulrocnAXrc7soFU151jwk3UFqAav/7ynjh5lIbSRFZCOcMbejvgKf6uFZw46c/gTpnvozJU5+9ycd3AglPnbx5AgcOcMnWH3h22JnM84B1UxPriEM4Hp6eVCXZJuBxASAUjk7XX3+99Y8Nd3VMJEACJEACJFBdBOCProXQ+PHjlUjRx8YPO6J2IESdmeDugh9xU/CjLATplVdeaRXVIQ+RgRcDYUIp/I9NNxW0cdVVV1m+yGbkDqshEWWxhp+8p49ZFiEW8XEVWnhhj06ejoP9iKajjV6YcDh8+HBVDdZG842sOiY8RP8VV1zhZKVFBYwN+ab4QL6OPAMBCY6m1R95mEfgztinOlFD//wWY9ITNRFJxvWmyx0mXOf6mtTMEVvfnAzqrl515lV1TP70DZGSdMKTiYpusnW5qizx/dPfV3Pirs7D0vxfgInG+gYLTwR1HVjftaEbE8o9zV/x1DfbXGhwAMRURZhHfFExACQ8fvrss888Hd/nfH1huv4j87lBViQBEiABEggZApgghtjamDSG3yQIcPyIIl+LHC3wzUHjRxVxzrFPu0+gvk7wY3f9oYWlVL/JEXXwu2T+gMNH2bTC6bawxAREfDylN954w9oF1whExkEoZT0vDI/+tSiHCDCFuFXx1xVYIydOnKjmkWnfeexasWKFU1G0Ax9/WCJhnEMduAGACdhptwvXY8HnH+PERF8c65ZbblHHQj2IKHB0Df0MK//IkSOt42txg2OYN1h4QvDVV19Z5XxZwU2F+SRFn1cExtDhqdEu3iiKyD5Iv8WYYFHHTRkYXnfddcplGNcugoV4YoC5gDryDPptd+x3BcOPP76MydfDwQKPG1lcu/Hx8UqX6u/6zJkz/X6pFd4RoV1izD7CcK0T3PZ0eFkcG98x3Lziur799tut/y0oj/36plnX92ZpmwX+888/V/8c8Y9Mi3fM5EfsXH3n4U2HvC2jnf0RlUZPAPC2LsuRAAmQAAmEPgFYvj799FMrUhlEtSne8bIlMyFMIwQ4EsQdymqRh3lXsOq7/tDileumewx8wLV4xw8zhDB+H+1ImP+lLZn4nYXPsyneK3raDQGM+igP8YFxoX948Y67ybXwsccNEI6HshC+qAcBgnq6PddxIcTmwoULrXoQ7vpmAZZ+1zfjgrH50ezQrpnvyRUCffE2of9mm7oemJj5+iZC76/uMUHs4aNvFNE/cDdvPnTf9BI3ibo8rmGc66qmirSa5qyX7tquqL43Y3LXts7TS3fHdZf39ddfK5cU/X3BNYyPeX3peq5tu27rcnpZ2X5dzlxiPgKe5ui6+D+BhO8EjNy4aa5qCktISHC6+hFjFgn/lCpLmCzz1ltvqWKPPvqoeuED6sNKgLs//UrdytrxZT9898aMGaOqAgh8EnHHrN8C5kubrEMCJEACJBCaBPDDjd8mGJlgoYPg0T/uriOGOIZgRFn8wGJSG+roH1/X8tiG1R11IBJRDnXgP12RqHHXjjd5EHKwvEMEwBKPsWDpLsHVBVZ7CAQIBYhTBJ3AbyZ+o73pH3jgyQSMZZqdfgru7pg6T9cDe/BAP4M91dQx4fqDZRciFaElcbPJVDMJ4D0T+P5Cs3r63po9h5sNnr7gf5GZbHWhQcMQ/t6If7MTvqzD3wvWBzyqw50p7vJNv0Vf2mQdEiABEiCB0CQAoardIioboXZPqaycuR8/rhDJvljSzHa8WcckOHMinDd1dBm4ELlawfU+T0vwwMuZqpp8rVfV41Rn+Zo6JrxkDOIdCWFPmWouAXin4ONvsl3A+9uhqtTHm1j121hhiajIOlKVdlmWBEiABEggOAlgUmm3bt2Cs/M29nrKlCkeW3vggQc87uOO4CCA8wsrLp6uYB6BDuUN32/tSsPzHBzn0rWXFX13zbJBLeDNgWi/RTOP6yRAAiRAAiRAAiQQigQwadWcfIunAxXNgwhFBrV5TH4JeEwk1TPKA+nvXptPEMdOAiRAAiTgPYH58+cLPkwOApio6+o+5K2FjwxrNgGESzxw4IAKF4mIQNBjpp80z3PNPn/+9s6vSaz+Hpz1SYAESIAESIAESIAESIAE3BPwNInVtjCS7g/LXBIgARIgARIgARIgARIgATsJUMDbSZNtkQAJkAAJkAAJkAAJkECACVDABxgwmycBEiABEiABEiABEiABOwlQwNtJk22RAAmQAAmQAAmQAAmQQIAJUMAHGDCbJwESIAESIAESIAESIAE7CVDA20mTbZEACZAACZAACZAACZBAgAlQwAcYMJsnARIgARIgARIgARIgATsJUMDbSZNtkQAJkAAJkAAJkAAJkECACfj1JtYA963GNx8eEVGujyWFhVJaUlIuP9Qznh82yNYhPrIs0db22BgJkAAJkAAJkAAJhAoBCngfz2TdBg1k9AfTytXe+d4HcmD+9+XymRE6BDp16Sp/f/QZNaAH/nKnZJ7ICJ3BcSQkQAIkQAIkQAI1ngAFvI+nCFb2/BOZVu2Ipk0c62FhVl5tXBm1ebVfw17Ua7Bf9aujcnh42demTh16oVUHcx6DBEiABEiABEigjECZEinL45oXBIrz8+Xn2++xSp7/8QypU7+etc0VEiABEiABEiABEiABEggEAZoPA0GVbZIACZAACZAACZAACZBAgAiEtAW+8RntpGmPbhKd0EHq1KsnOakH5eCipZJ75KhbnA3jW0vz/n0kuuOZUlxQKJk7d8mRxHVSlJ3jtryvmWF16kjLQf2lSdfOEhHbVHJS0iRj8zY5sX2nxybrNW4kLfr1ldLSEjm0ZIWEhYdL8359JO6cgaoO6h9cvEyktNSpjabNYuXs/mUTTDdtXCfHjh5xKhOMG6PHXizh4XVkzeqVyge9e88+Mmz4KGkcEy1pKcny9RdzJCcn22locHcZfM4w6dKth7SMay2H0w9K0oZ1snH9Gqdy5kZs8xYybMRoSejcRTKOHZPVK5dLSUmxWcTteoezEqRDx07WviWLfpCiokJrmyskQAIkQAIkQAIk4CuBkBTwiA7T8947JG6IQ9yacM66Zpzs/Wye7J79uZktZ117tWCfmdqeP1JKJk6Qjf94WY5t2GTu8nm9QcsWMmjy4xLRrKlTGzj+0XUbJWnqq1JSUF7oQexjTEhZu/fJua+8KLgR0Cl+xDBp1rO7bHntbZ2lln37DZDrbrzFyouOiZF5c2Zb28G6osdUXFwiV4z7vTRs1MgaStduPWXIucPlr3ffauW1bX+GTHroSadymIwKcb5/726Z+sIzkp+fZ5XHytkDBsmdf75fTD/3c88bKbt+2eFUzt3GuN9dJ9169LJ2bdm0QY4cTre2uUICJEACJEACJEACvhIoU4C+tlAD6w35x9OWeM87ekxSFy6S5G8XStaefaq3UfGtnHrdduwoS7wXZueo8oeWrVThIOHX3u+xBySyRaxTHZ82wsJkyJRnLfF+PGmzJH+7QHLSDqnmWvTvK73v+1OlTQ+c/LgS73nHjqsbC4wLk2rDI+pXWjfUCoy/5v+UKC/Iz5fU5AOSmpIsxUVFEl433BpqdEwTefyZl1S50tJS2bNrp6xYuljSUpNVmTM7JshfH3jEKo8V1Lnrnr8p8V5SUiLbtmySzUnrpbi4WDp17upUlhskQAIkQAIkQAIkUJ0EQs4CD0t0w7ZtFMOU7xbK9nffd+LZrEc3iWrTuiwvLEw63XCt2i44mSVL775fivPy1fb+uV/LkKnPKbHc9dYbZeNLL5fV82ENFv16jRqqmtunzZSU73+0Wun36CTlEgPXGtws5B09bu1zXakf3Vi2vD5NuQPpffWbNJFG7Rzj1nm1YVk/IkI2J22Q1/79khV/v169egJLuU533uOwokO8T3n+Sdm1s8yCPuH2u2To8FGS0LmrwCKv911/820S9mtEoanPP2VZ3Vu3aStPTZ7qZJXXx+GSBEiABEiABEiABKqDQMhZ4DuMv0JxgyV9+/RZ5RhmbN0uqQt+svIbtW1jieo9n82zxDsKnDqQIhmbt6qyzfv2tur4uhI/ariqWnT6tJN4R+a2aTOtZuOHD7XW3a0cXr3WSbyjTEFmptVXs05OTo6ySMMqjU/2qSxzd9Cv5+Xlyqv/fMES7xhQYWGh/PzTQjU2uBlpi/nqlcssga4HPvvDmQJhjzR0+GidLd17Os734UMHLfGOnYfSUuWXnduscp5WTp7MdOKOPjGRAAmQAAmQAAmQgB0EQs4CHxnbTHE5umZ9uQmd7oA1NKzxRxPXlStydF2SxPbppUJEQgz685bVBr+64ZzctbfcceDqA8t/eGSERLV2dvFxLZzyzQLXLI/biSuXCT6hmjZtXF/h0Nqfcaa1f9CQodJ/4BBrW69oS7tZtn59x1t2d+/+RRezlluSNgr87CtK0996TfBhIgESIAESIAESIAG7CYSUBR4CGwIYKeegw6+8MmCmP7z5YiZdD37mOkW1itOrPi3r/TrRMj/jhNv6hdmOqClRrVq63a8zs1PT9GqtXx5MTamQQcezyiLBYDIq3GtcP7qBunUdcfwjIiItF5mTmeXP1fFj7qMY6Xa4JAESIAESIAESIIFAEghLSEhwijvYu7fDdWDTJnuirgSy82bb77z/qblZa9dTkvdLu/ZlVudAgdi5fatMfeFpq/nnhzlCVdr1JtZHliVabWNl0sNPqvCPTplBvgHf+p07KnfHCfJhsvskQAIkQAIkQAI+EujVq5ekp6dLQUGBUwshZYF3Ghk3SIAESIAESIAESIAESCAECYSMD/zEm65Rp2fQ5CekSddOyld90c13CSaMVpQQ8WX4W47oMge+/k52zvzIqfjQV15UUW2Kc/PkxxsmOu0zN0a8+5pENG0imdt3SuJjz5m7rPX+TzwosX16qr79cN1tUlpUZO1r2qOrDHzmUbWNyDmIoGOmFgP7ydkP3aeyFoy/0dxV4fqo8y+U/7vpNqvMN1/NDco48Ka1H4PRT1xmzZgmSxb/YI3P3crbM2crlxiEmHz60UnuipTL++dr01QoyexTp+S+P5XxQ8Hn/vGyxLWKV3UevO9uyTh+rFz9P9xwi4y54GIrH/7wq1Ystba5QgIkQAIkQAIkQAK+Egg5C/yO6Y6wkfCHH/ziU4KQi1ZSISOvkS633GBlIVwjos0gtb94rHoLq97Z7sIxZSEpjcg1er+5zE5OVZsxXToJQlm6S3iBFBL61vv+snjv9RpGSe+/3q32QdQf/PFnd9WZ5yOBpYsd4Trbtmsv1998u1MrOBejx14kL/7rDWneomzuweJfo9g0atxYrhzvCDOKiiPHXGCJd6eGuEECJEACJEACJEAC1UQgZCzwmlfW3v2S+sNiQcx1RJgZMf11UZNGS0slIraZEs/py1fp4mq5Y9pMUS9HqltXvWgJE1fr1K9vif/i/HzZ88lcpzquGztmzJKhr7yk2scbU3v82WGtP5K4TpKmvKqKn9i+U7J275XohI4SN3iAjPnwXSk4eVIiWzRX9VBo7+dfSbGLn5PrsbhdNQIfvT9d+g0YJI2jY5QAP2/EaMnOyZbwOuES1bChNWE1skEDq+FvvvxcLrzkcsGE1suuHC/nX3CJlJSWSFSUI46/VdDDSnh42YukPBRhNgmQAAmQAAmQAAn4RCDkLPCgsO3N6bL5lTcFwhsW1sjmsZZIhkvN4VVrnGCd2PGLrH74acvdBuW15R7W+aV33a/acqrkspGTelDWPP6c5B49plxkcFx86hqiEFVwnENLlqvaiJjTIK6lKofwlNvemiF7Pv3CpWXHZmlxidv8yjLxFlEzlRQXm5tBv15cUvl4wGDSvXfImlUrVMz38Lp1JSamicC6jsg02H9g3145kVEWcQh5j0y6VzJPZChGEPcQ78iHG5JO2HaXOnRMsLJRZvOmDdY2V0iABEiABEiABEjAHwIhE4XGEwS8oTQmoYOEhYfL6YPpkp3icHXxVD6iWVOJSegoJYWFkrljlxTl5noq6ld+GERkQgeJjI2VUweSJSftkFdx6/06aAAr6yg0dh3CNQqNXe2iHUTp6ZjQSYqKiiQtNUUO7N9bYXz/ZrHNpWevvnLkcLrs2L7Fq668OeND0WEpV69YKu8yJrxX3FiIBEiABEiABEigjICnKDQh50JTNmTHGt5QenSt99ZPuNvA7SXQCb7uuEEQwYepOgkg1CY+3iZMUq1soqzZVus2bS3xDuv7B/9919zNdRIgARIgARIgARLwi0DIC3i/6LCy1wQCaTH3uhM1pOA5Q4dbPVm+ZJHkBegpjnUQrpAACZAACZAACdQqAhTwtep0c7DVQWD+l5/L4h8XqENpH/rqOC6PQQIkQAIkQAIkUDsIUMDXjvPMUVYjgYL8fMnIz6/GI/JQJEACJEACJEACtYlASEahqU0nkGMlARIgARIgARIgARKoXQQo4GvX+eZoSYAESIAESIAESIAEgpwABXyQn0B2nwRIgARIgARIgARIoHYRoICvXeeboyUBEiABEiABEiABEghyAn5PYm3durXUq1dPsrKyJDs7W70cJ8iZsPskQAIkQAIkQAIkQAIkUGMJ+C3gx4wZI1FRUdYA9+3bJwsXLrS2uUICJEACJEACJEACJEACJGAfAb9daHbs2CEpKSmSl5enetWhQwfp1KmTfT1kSyRAAiRAAiRAAiRAAiRAAhYBvy3wa9euVY2FhYXJhAkTlDtNu3btZNeuXdZBuEICJEACJEACJEACJEACJGAPAb8t8LobpaWlkpmZqTYbN26ss7kkARIgARIgARIgARIgARKwkYBtAh59KiwsVF2rU8fWZm0cLpsiARIgARIgARIgARIggeAmQKUd3OePvScBEiABEiABEiABEqhlBAIiI3M8hwAAAxZJREFU4BFWkokESIAESIAESIAESIAESMB+ArYK+NzcXNXDmJgYwaRWJhIgARIgARIgARIgARIgAXsJ2Crgjxw5onoH8d6tWzd7e8rWSIAESIAESIAESIAESIAExO8wkibDrVu3Svv27aVNmzYybNgwGThwoJw+fVrS0tJkxYoVZlGukwAJkAAJkAAJkAAJkAAJ+EDAVgt8SUmJJCYmSnp6uupKRESENG3aVOLj433oGquQAAmQAAmQAAmQAAmQAAm4ErDVAh8bGyvjxo1Tx8jPz5fly5fLsWPHBOtMJEACJEACJEACJEACJEAC/hOwVcB3797d6tH8+fPl+PHj1jZXSIAESIAESIAESIAESIAE/CdgqwtNdHS06hEs7hTv/p8ctkACJEACJEACJEACJEACrgRsFfA6dGRWVpbrcbhNAiRAAiRAAiRAAiRAAiRgAwFbBbwN/WETJEACJEACJEACJEACJEACFRCwVcAj6gwTCZAACZAACZAACZAACZBA4AjYJuDr16+vQkaiq5mZmYHrMVsmARIgARIgARIgARIggVpMwO8oNGPHjpWWLVtKVFSUaB/4PXv21GKkHDoJkAAJkAAJkAAJkAAJBI6A3wI+Li5OiXd0saCgQJKSkiQ5OTlwPWbLJEACJEACJEACJEACJFCLCfgt4OfMmaPw5eXl1WKMHDoJkAAJkAAJkAAJkAAJVA8BvwU8hXv1nCgehQRIgARIgARIgARIgARAwLZJrMRJAiRAAiRAAiRAAiRAAiQQeAIU8IFnzCOQAAmQAAmQAAmQAAmQgG0EKOBtQ8mGSIAESIAESIAESIAESCDwBCjgA8+YRyABEiABEiABEiABEiAB2whQwNuGkg2RAAmQAAmQAAmQAAmQQOAJUMAHnjGPQAIkQAIkQAIkQAIkQAK2EaCAtw0lGyIBEiABEiABEiABEiCBwBOggA88Yx6BBEiABEiABEiABEiABGwjQAFvG0o2RAIkQAIkQAIkQAIkQAL2EQgLC3PbGAW8WyzMJAESIAESIAESIAESIIHflgAEvP6YPfl/yLkt0O2tYfgAAAAASUVORK5CYII=;" vertex="1" parent="1">
          <mxGeometry x="380" y="720" width="377" height="208" as="geometry"/>
        </mxCell>
        <mxCell id="qufxZVR9V2CCAmt_oVOz-3" value="&lt;div style=&quot;color: rgb(212 , 212 , 212) ; font-family: &amp;#34;menlo&amp;#34; , &amp;#34;monaco&amp;#34; , &amp;#34;courier new&amp;#34; , monospace ; line-height: 18px ; white-space: pre&quot;&gt;&lt;div&gt;&lt;span style=&quot;color: rgb(128 , 128 , 128)&quot;&gt;&amp;lt;!&lt;/span&gt;&lt;span style=&quot;color: rgb(86 , 156 , 214)&quot;&gt;DOCTYPE&lt;/span&gt; &lt;span style=&quot;color: rgb(156 , 220 , 254)&quot;&gt;html&lt;/span&gt;&lt;span style=&quot;color: rgb(128 , 128 , 128)&quot;&gt;&amp;gt;&lt;/span&gt;&lt;/div&gt;&lt;div&gt;&lt;span style=&quot;color: #808080&quot;&gt;&amp;lt;&lt;/span&gt;&lt;span style=&quot;color: #569cd6&quot;&gt;html&lt;/span&gt; &lt;span style=&quot;color: #9cdcfe&quot;&gt;lang&lt;/span&gt;=&lt;span style=&quot;color: #ce9178&quot;&gt;&quot;en&quot;&lt;/span&gt;&lt;span style=&quot;color: #808080&quot;&gt;&amp;gt;&lt;/span&gt;&lt;/div&gt;&lt;div&gt;&lt;span style=&quot;color: #808080&quot;&gt;&amp;lt;&lt;/span&gt;&lt;span style=&quot;color: #569cd6&quot;&gt;head&lt;/span&gt;&lt;span style=&quot;color: #808080&quot;&gt;&amp;gt;&lt;/span&gt;&lt;/div&gt;&lt;div&gt;    &lt;span style=&quot;color: #808080&quot;&gt;&amp;lt;&lt;/span&gt;&lt;span style=&quot;color: #569cd6&quot;&gt;meta&lt;/span&gt; &lt;span style=&quot;color: #9cdcfe&quot;&gt;charset&lt;/span&gt;=&lt;span style=&quot;color: #ce9178&quot;&gt;&quot;UTF-8&quot;&lt;/span&gt;&lt;span style=&quot;color: #808080&quot;&gt;&amp;gt;&lt;/span&gt;&lt;/div&gt;&lt;div&gt;    &lt;span style=&quot;color: #808080&quot;&gt;&amp;lt;&lt;/span&gt;&lt;span style=&quot;color: #569cd6&quot;&gt;meta&lt;/span&gt; &lt;span style=&quot;color: #9cdcfe&quot;&gt;name&lt;/span&gt;=&lt;span style=&quot;color: #ce9178&quot;&gt;&quot;viewport&quot;&lt;/span&gt; &lt;span style=&quot;color: #9cdcfe&quot;&gt;content&lt;/span&gt;=&lt;span style=&quot;color: #ce9178&quot;&gt;&quot;width=device-width, initial-scale=1.0&quot;&lt;/span&gt;&lt;span style=&quot;color: #808080&quot;&gt;&amp;gt;&lt;/span&gt;&lt;/div&gt;&lt;div&gt;    &lt;span style=&quot;color: #808080&quot;&gt;&amp;lt;&lt;/span&gt;&lt;span style=&quot;color: #569cd6&quot;&gt;meta&lt;/span&gt; &lt;span style=&quot;color: #9cdcfe&quot;&gt;http-equiv&lt;/span&gt;=&lt;span style=&quot;color: #ce9178&quot;&gt;&quot;X-UA-Compatible&quot;&lt;/span&gt; &lt;span style=&quot;color: #9cdcfe&quot;&gt;content&lt;/span&gt;=&lt;span style=&quot;color: #ce9178&quot;&gt;&quot;ie=edge&quot;&lt;/span&gt;&lt;span style=&quot;color: #808080&quot;&gt;&amp;gt;&lt;/span&gt;&lt;/div&gt;&lt;div&gt;    &lt;span style=&quot;color: #808080&quot;&gt;&amp;lt;&lt;/span&gt;&lt;span style=&quot;color: #569cd6&quot;&gt;title&lt;/span&gt;&lt;span style=&quot;color: #808080&quot;&gt;&amp;gt;&lt;/span&gt;CSS Especificity&lt;span style=&quot;color: #808080&quot;&gt;&amp;lt;/&lt;/span&gt;&lt;span style=&quot;color: #569cd6&quot;&gt;title&lt;/span&gt;&lt;span style=&quot;color: #808080&quot;&gt;&amp;gt;&lt;/span&gt;&lt;/div&gt;&lt;div&gt;    &lt;span style=&quot;color: #808080&quot;&gt;&amp;lt;&lt;/span&gt;&lt;span style=&quot;color: #569cd6&quot;&gt;style&lt;/span&gt;&lt;span style=&quot;color: #808080&quot;&gt;&amp;gt;&lt;/span&gt;&lt;/div&gt;&lt;div&gt;    &lt;span style=&quot;color: #6a9955&quot;&gt;/* element level */&lt;/span&gt;&lt;/div&gt;&lt;div&gt;    &lt;span style=&quot;color: #d7ba7d&quot;&gt;p&lt;/span&gt; {&lt;/div&gt;&lt;div&gt;        &lt;span style=&quot;color: #9cdcfe&quot;&gt;color&lt;/span&gt;: &lt;span style=&quot;color: #ce9178&quot;&gt;red&lt;/span&gt;;&lt;/div&gt;&lt;div&gt;    }&lt;/div&gt;&lt;br&gt;&lt;div&gt;    &lt;span style=&quot;color: #6a9955&quot;&gt;/* class level */&lt;/span&gt;&lt;/div&gt;&lt;div&gt;    &lt;span style=&quot;color: #d7ba7d&quot;&gt;.c1&lt;/span&gt; {&lt;/div&gt;&lt;div&gt;        &lt;span style=&quot;color: #9cdcfe&quot;&gt;color&lt;/span&gt;: &lt;span style=&quot;color: #ce9178&quot;&gt;orange&lt;/span&gt;;&lt;/div&gt;&lt;div&gt;    }&lt;/div&gt;&lt;br&gt;&lt;div&gt;    &lt;span style=&quot;color: #6a9955&quot;&gt;/* ID level */&lt;/span&gt;&lt;/div&gt;&lt;div&gt;    &lt;span style=&quot;color: #d7ba7d&quot;&gt;#p1&lt;/span&gt; {&lt;/div&gt;&lt;div&gt;        &lt;span style=&quot;color: #9cdcfe&quot;&gt;color&lt;/span&gt;: &lt;span style=&quot;color: #ce9178&quot;&gt;yellow&lt;/span&gt;;&lt;/div&gt;&lt;div&gt;    }&lt;/div&gt;&lt;div&gt;    &lt;span style=&quot;color: #808080&quot;&gt;&amp;lt;&lt;/span&gt;&lt;span style=&quot;color: #808080&quot;&gt;/&lt;/span&gt;&lt;span style=&quot;color: #569cd6&quot;&gt;style&lt;/span&gt;&lt;span style=&quot;color: #808080&quot;&gt;&amp;gt;&lt;/span&gt;&lt;/div&gt;&lt;div&gt;&lt;span style=&quot;color: #808080&quot;&gt;&amp;lt;/&lt;/span&gt;&lt;span style=&quot;color: #569cd6&quot;&gt;head&lt;/span&gt;&lt;span style=&quot;color: #808080&quot;&gt;&amp;gt;&lt;/span&gt;&lt;/div&gt;&lt;div&gt;&lt;span style=&quot;color: #808080&quot;&gt;&amp;lt;&lt;/span&gt;&lt;span style=&quot;color: #569cd6&quot;&gt;body&lt;/span&gt; &lt;span style=&quot;color: #9cdcfe&quot;&gt;style&lt;/span&gt;=&lt;span style=&quot;color: #ce9178&quot;&gt;&quot;&lt;/span&gt;&lt;span style=&quot;color: #ce9178&quot;&gt;background-color: darkgray;&quot;&lt;/span&gt;&lt;span style=&quot;color: #808080&quot;&gt;&amp;gt;&lt;/span&gt;&lt;/div&gt;&lt;div&gt;    &lt;span style=&quot;color: #808080&quot;&gt;&amp;lt;&lt;/span&gt;&lt;span style=&quot;color: #569cd6&quot;&gt;p&lt;/span&gt; &lt;span style=&quot;color: #9cdcfe&quot;&gt;id&lt;/span&gt;=&lt;span style=&quot;color: #ce9178&quot;&gt;&quot;p1&quot;&lt;/span&gt; &lt;span style=&quot;color: #9cdcfe&quot;&gt;class&lt;/span&gt;=&lt;span style=&quot;color: #ce9178&quot;&gt;&quot;c1&quot;&lt;/span&gt; &lt;span style=&quot;color: #9cdcfe&quot;&gt;style&lt;/span&gt;=&lt;span style=&quot;color: #ce9178&quot;&gt;&quot;&lt;/span&gt;&lt;span style=&quot;color: #ce9178&quot;&gt;color: greenyellow;&quot;&lt;/span&gt;&lt;span style=&quot;color: #808080&quot;&gt;&amp;gt;&lt;/span&gt;Lorem ipsum &lt;span style=&quot;color: #808080&quot;&gt;&amp;lt;/&lt;/span&gt;&lt;span style=&quot;color: #569cd6&quot;&gt;p&lt;/span&gt;&lt;span style=&quot;color: #808080&quot;&gt;&amp;gt;&lt;/span&gt;    &lt;/div&gt;&lt;div&gt;&lt;span style=&quot;color: #808080&quot;&gt;&amp;lt;/&lt;/span&gt;&lt;span style=&quot;color: #569cd6&quot;&gt;body&lt;/span&gt;&lt;span style=&quot;color: #808080&quot;&gt;&amp;gt;&lt;/span&gt;&lt;/div&gt;&lt;div&gt;&lt;span style=&quot;color: rgb(128 , 128 , 128)&quot;&gt;&amp;lt;/&lt;/span&gt;&lt;span style=&quot;color: rgb(86 , 156 , 214)&quot;&gt;html&lt;/span&gt;&lt;span style=&quot;color: rgb(128 , 128 , 128)&quot;&gt;&amp;gt;&lt;/span&gt;&lt;/div&gt;&lt;/div&gt;" style="text;html=1;strokeColor=none;fillColor=none;align=left;verticalAlign=middle;whiteSpace=wrap;rounded=0;" vertex="1" parent="1">
          <mxGeometry x="56" y="520" width="564" height="590" as="geometry"/>
        </mxCell>
      </root>
    </mxGraphModel>
  </diagram>
</mxfile>
